<?xml version="1.0" encoding="UTF-8"?><svg id="ARTWORK" xmlns="http://www.w3.org/2000/svg" viewBox="0 0 3318.89 1299.51"><defs><style>.cls-1{opacity:.26;}.cls-2{fill:#2881f2;stroke-width:0px;}</style></defs><g id="Group_17174" class="cls-1"><g id="Group_17173"><path id="Path_6657" class="cls-2" d="m1419.26,1107.91c-38.42,0-70.89,28.51-75.84,66.61v103.5h151.57v-103.43l-.1-.71c-5.19-37.79-37.48-65.96-75.63-65.96"/><path id="Path_6658" class="cls-2" d="m1605.92,1060.26c-38.42,0-70.89,28.51-75.84,66.61v151.15h151.57v-151.1l-.1-.71c-5.19-37.79-37.48-65.96-75.63-65.95"/><path id="Path_6659" class="cls-2" d="m1793.38,1107.91c-38.42,0-70.89,28.51-75.84,66.61v103.5h151.57v-103.43l-.1-.71c-5.18-37.8-37.48-65.96-75.63-65.96"/><rect id="Rectangle_381" class="cls-2" x="764.87" y="1174.28" width="31.64" height="61.34"/><rect id="Rectangle_382" class="cls-2" x="719.88" y="1128.43" width="31.58" height="32.14"/><path id="Path_6660" class="cls-2" d="m906.8,1014.57c-16.43,0-38.29,12.06-38.29,37.38,0,.76.04,1.49.09,2.23h-.09v35.55h76.6v-35.55h-.09c.04-.74.09-1.47.09-2.23,0-25.33-21.83-37.38-38.32-37.38"/><rect id="Rectangle_383" class="cls-2" x="719.88" y="1174.28" width="31.58" height="61.34"/><path id="Path_6661" class="cls-2" d="m758.19,1014.57c-16.45,0-38.32,12.06-38.32,37.38,0,.76.06,1.49.09,2.23h-.09v35.55h76.63v-35.55h-.09c.03-.74.09-1.47.09-2.23,0-25.33-21.84-37.38-38.32-37.38"/><rect id="Rectangle_384" class="cls-2" x="764.87" y="1128.43" width="31.64" height="32.14"/><rect id="Rectangle_385" class="cls-2" x="616.22" y="1128.43" width="31.64" height="32.14"/><rect id="Rectangle_386" class="cls-2" x="616.22" y="1174.28" width="31.64" height="61.34"/><path id="Path_6662" class="cls-2" d="m609.56,1014.57c-16.46,0-38.32,12.06-38.32,37.38,0,.76.06,1.49.09,2.23h-.09v35.55h76.63v-35.55h-.09c.03-.74.09-1.47.09-2.23,0-25.33-21.86-37.38-38.32-37.38"/><rect id="Rectangle_387" class="cls-2" x="571.25" y="1174.28" width="31.58" height="61.34"/><rect id="Rectangle_388" class="cls-2" x="571.25" y="1128.43" width="31.58" height="32.14"/><rect id="Rectangle_389" class="cls-2" x="913.49" y="1128.43" width="31.64" height="32.14"/><rect id="Rectangle_390" class="cls-2" x="1062.12" y="1174.28" width="31.64" height="61.34"/><rect id="Rectangle_391" class="cls-2" x="1062.12" y="1128.43" width="31.64" height="32.14"/><rect id="Rectangle_392" class="cls-2" x="1017.14" y="1128.43" width="31.58" height="32.14"/><rect id="Rectangle_393" class="cls-2" x="1017.14" y="1174.28" width="31.58" height="61.34"/><path id="Path_6663" class="cls-2" d="m1055.46,1014.57c-16.45,0-38.32,12.06-38.32,37.38,0,.76.06,1.49.09,2.23h-.09v35.55h76.63v-35.55h-.09c.03-.74.09-1.47.09-2.23,0-25.33-21.86-37.38-38.32-37.38"/><rect id="Rectangle_394" class="cls-2" x="913.49" y="1174.28" width="31.64" height="61.34"/><rect id="Rectangle_395" class="cls-2" x="868.51" y="1174.28" width="31.58" height="61.34"/><rect id="Rectangle_396" class="cls-2" x="868.51" y="1128.43" width="31.58" height="32.14"/><rect id="Rectangle_397" class="cls-2" x="3055.89" y="1040.68" width="37.53" height="46.08"/><rect id="Rectangle_398" class="cls-2" x="3055.89" y="986.27" width="37.53" height="40.58"/><path id="Path_6664" class="cls-2" d="m3050.09,861.2c-24.57,0-44.49,19.92-44.49,44.49h0c0,.73.07,1.44.1,2.16h-.1v38.89h87.85v-38.89h-.1c.03-.71.1-1.43.1-2.16.53-24.03-18.51-43.94-42.54-44.48-.26,0-.53,0-.79-.01"/><rect id="Rectangle_399" class="cls-2" x="3005.6" y="986.27" width="38.55" height="40.58"/><rect id="Rectangle_400" class="cls-2" x="2902.46" y="986.27" width="38.12" height="40.58"/><path id="Path_6665" class="cls-2" d="m3005.6,1086.76h38.55v-46.08h-38.55v46.08Z"/><path id="Path_6666" class="cls-2" d="m2897.23,861.2c-24.57,0-44.49,19.92-44.49,44.49h0c0,.73.07,1.44.1,2.16h-.1v38.89h87.82v-38.89h-.1c.03-.71.1-1.43.1-2.16.54-24.03-18.51-43.94-42.53-44.48-.27,0-.53,0-.8-.01"/><path id="Path_6667" class="cls-2" d="m1606.5,311.06l-69.84,71.96h-10.91v118.3h162.14v-118.3h-13.12l-68.27-71.96Zm-23.66,121.71h-26.38v-44.17h26.38v44.17Zm37.28,0h-26.38v-55.82h26.38v55.82Zm37.3,0h-26.38v-44.17h26.38v44.17Z"/><path id="Path_6668" class="cls-2" d="m1405.69,783.2c1.58-1.03,3.27-1.89,5.03-2.55v-41.02c-12.49,1.59-24.29,6.6-34.11,14.49l29.08,29.08Z"/><path id="Path_6669" class="cls-2" d="m1394.42,804.07c0-2.27.32-4.54.93-6.72l-30.78-30.78c-8.04,10.99-12.93,23.95-14.17,37.5h7.83v18.2h-3.85v58.82h56.36v-53.6c-9.8-3.63-16.31-12.97-16.3-23.42"/><path id="Path_6670" class="cls-2" d="m1481.42,804.07h7.09c-1.23-13.55-6.13-26.5-14.17-37.48l-30.89,30.87c3.42,12.49-3.27,25.53-15.42,30.02v53.59h56.36v-58.81h-2.98v-18.2Z"/><path id="Path_6671" class="cls-2" d="m1462.28,754.14c-9.85-7.91-21.7-12.94-34.24-14.52v41.03c1.81.67,3.53,1.55,5.14,2.61l29.1-29.12Z"/><path id="Path_6672" class="cls-2" d="m1592.12,783.2c1.58-1.03,3.27-1.89,5.03-2.55v-41.02c-12.49,1.59-24.29,6.6-34.11,14.49l29.08,29.08Z"/><path id="Path_6673" class="cls-2" d="m1580.85,804.07c0-2.27.32-4.54.93-6.72l-30.78-30.78c-8.04,10.99-12.93,23.95-14.17,37.5h7.83v18.2h-3.85v58.82h56.36v-53.6c-9.8-3.63-16.31-12.97-16.3-23.42"/><path id="Path_6674" class="cls-2" d="m1667.86,804.07h7.09c-1.23-13.55-6.13-26.5-14.17-37.48l-30.89,30.87c3.42,12.49-3.27,25.53-15.42,30.02v53.59h56.36v-58.81h-2.98v-18.2Z"/><path id="Path_6675" class="cls-2" d="m1648.72,754.14c-9.85-7.91-21.7-12.94-34.24-14.52v41.03c1.81.67,3.53,1.55,5.14,2.61l29.1-29.12Z"/><path id="Path_6676" class="cls-2" d="m1779.48,783.2c1.58-1.03,3.28-1.89,5.05-2.55v-41.02c-12.49,1.6-24.29,6.61-34.11,14.49l29.06,29.08Z"/><path id="Path_6677" class="cls-2" d="m1768.21,804.07c0-2.27.32-4.54.93-6.72l-30.78-30.78c-8.04,10.99-12.93,23.95-14.17,37.5h7.83v18.2h-3.85v58.82h56.32v-53.6c-9.8-3.63-16.31-12.97-16.3-23.42"/><path id="Path_6678" class="cls-2" d="m1855.21,804.07h7.09c-1.23-13.55-6.13-26.5-14.17-37.48l-30.89,30.87c3.42,12.49-3.27,25.53-15.42,30.02v53.59h56.36v-58.81h-2.98v-18.2Z"/><path id="Path_6679" class="cls-2" d="m1836.07,754.14c-9.85-7.91-21.7-12.94-34.24-14.52v41.03c1.81.67,3.53,1.55,5.14,2.61l29.1-29.12Z"/><path id="Path_6680" class="cls-2" d="m1980.72,520.25c-20.56,0-37.49,13.3-40.03,30.49l-.23,68.96h80.52l-.26-68.96c-2.54-17.19-19.48-30.49-40.01-30.49"/><rect id="Rectangle_401" class="cls-2" x="2852.74" y="986.27" width="37.97" height="40.58"/><rect id="Rectangle_402" class="cls-2" x="2852.74" y="1040.68" width="37.97" height="46.08"/><rect id="Rectangle_403" class="cls-2" x="2902.52" y="1040.68" width="37.97" height="46.08"/><rect id="Rectangle_404" class="cls-2" x="2341.74" y="1174.28" width="31.58" height="58.94"/><rect id="Rectangle_405" class="cls-2" x="2386.71" y="1174.28" width="31.64" height="58.94"/><path id="Path_6681" class="cls-2" d="m2192.77,1014.57c-16.46,0-38.32,12.06-38.32,37.38,0,.76.06,1.49.09,2.23h-.09v35.55h76.63v-35.55h-.09c.03-.74.09-1.47.09-2.23,0-25.33-21.86-37.38-38.32-37.38"/><rect id="Rectangle_406" class="cls-2" x="2341.74" y="1128.43" width="31.58" height="32.14"/><rect id="Rectangle_407" class="cls-2" x="2199.41" y="1128.43" width="31.64" height="32.14"/><rect id="Rectangle_408" class="cls-2" x="2154.44" y="1174.28" width="31.58" height="58.94"/><rect id="Rectangle_409" class="cls-2" x="2386.71" y="1128.43" width="31.64" height="32.14"/><rect id="Rectangle_410" class="cls-2" x="2199.41" y="1174.28" width="31.64" height="58.94"/><rect id="Rectangle_411" class="cls-2" x="2154.44" y="1128.43" width="31.58" height="32.14"/><rect id="Rectangle_412" class="cls-2" x="2529.03" y="1128.43" width="31.58" height="32.14"/><rect id="Rectangle_413" class="cls-2" x="2574" y="1174.28" width="31.64" height="58.94"/><rect id="Rectangle_414" class="cls-2" x="2574" y="1128.43" width="31.64" height="32.14"/><path id="Path_6682" class="cls-2" d="m2380.04,1014.57c-16.45,0-38.32,12.06-38.32,37.38,0,.76.06,1.49.09,2.23h-.09v35.55h76.63v-35.55h-.09c.03-.74.09-1.47.09-2.23,0-25.33-21.86-37.38-38.32-37.38"/><path id="Path_6683" class="cls-2" d="m2567.34,1014.57c-16.45,0-38.32,12.06-38.32,37.38,0,.76.06,1.49.09,2.23h-.09v35.55h76.63v-35.55h-.09c.03-.74.09-1.47.09-2.23,0-25.33-21.84-37.38-38.32-37.38"/><rect id="Rectangle_415" class="cls-2" x="2529.03" y="1174.28" width="31.58" height="58.94"/><path id="Path_6684" class="cls-2" d="m217.15,842.55c-16.46,0-38.32,12.06-38.32,37.38,0,.76.06,1.49.09,2.23h-.08v35.57h76.63v-35.55h-.09c.03-.74.09-1.47.09-2.23,0-25.33-21.86-37.38-38.32-37.38"/><rect id="Rectangle_416" class="cls-2" x="223.81" y="956.43" width="31.64" height="32.14"/><rect id="Rectangle_417" class="cls-2" x="178.83" y="1002.26" width="31.58" height="61.34"/><rect id="Rectangle_418" class="cls-2" x="223.81" y="1002.26" width="31.64" height="61.34"/><rect id="Rectangle_419" class="cls-2" x="178.83" y="956.43" width="31.58" height="32.14"/><path id="Path_6685" class="cls-2" d="m362.13,842.55c-16.45,0-38.32,12.06-38.32,37.38,0,.76.06,1.49.09,2.23h-.09v35.57h76.63v-35.55h-.1c.03-.74.09-1.47.09-2.23,0-25.33-21.84-37.38-38.32-37.38"/><rect id="Rectangle_420" class="cls-2" x="368.79" y="956.43" width="31.64" height="32.14"/><rect id="Rectangle_421" class="cls-2" x="323.81" y="1002.26" width="31.58" height="61.34"/><rect id="Rectangle_422" class="cls-2" x="368.79" y="1002.26" width="31.64" height="61.34"/><rect id="Rectangle_423" class="cls-2" x="323.81" y="956.43" width="31.58" height="32.14"/><path id="Path_6686" class="cls-2" d="m3256.98,664.57l-56.71-71.62h-51.69l-174.93-230.83-175.37,230.83h-52.36l-56.71,71.73h-9.08l-.07,25.88h8.19v131.71l-307.87-270.24-306.68,270.66v-503.67h0v-1.57h-185.53v-14.42h185.53v-48.95c-3.04-44.67-37.46-80.84-81.92-86.1v-15.11c0-5.99-4.87-10.85-10.87-10.84-5.98,0-10.83,4.86-10.84,10.84v15.11c-44.4,5.25-78.74,41.41-81.7,86.02l-.21,47.89-202.95-256.61v-23.78h-9.45v23.62c-15.37,0-121.79-.1-139.12-.1v-23.52h-9.46v23.5h-1.17l-200.46,256.76v-47.68c-3.04-44.67-37.46-80.84-81.92-86.1v-15.11c0-5.99-4.87-10.85-10.87-10.84-5.98,0-10.83,4.86-10.84,10.84v15.11c-44.4,5.25-78.74,41.41-81.7,86.02l-.21,49.04h185.54v14.42h-185.53v277.82H469.71l-174.76-230.62-208.67,273.88h-32.98v28.59h10.03v73.26h460.35v12.06H63.33v525.57h488.4v-210.66h.14c-.04-1.11-.14-2.21-.14-3.34,0-37.98,26.45-68.78,59.08-68.78s59.08,27.27,59.08,68.78c0,1.12-.1,2.23-.14,3.34h.14v210.66h30.46v-210.66h.14c-.04-1.11-.14-2.21-.14-3.34,0-37.98,26.45-68.78,59.08-68.78s59.08,27.27,59.08,68.78c0,1.12-.1,2.23-.14,3.34h.14v210.66h30.46v-210.66h.14c-.04-1.11-.14-2.21-.14-3.34,0-37.98,26.45-68.78,59.08-68.78s59.09,25.78,59.09,68.77c0,1.12-.1,2.23-.14,3.34h.14v210.67h30.48v-210.66h.14c-.06-1.11-.14-2.21-.14-3.34,0-37.98,26.45-68.78,59.08-68.78s59.08,25.01,59.08,68.78c0,1.12-.1,2.23-.14,3.34h.14v210.66h201.94s.14-53.54.14-108.87,60-89.89,100.54-89.89c33.29-.02,64.58,15.89,84.17,42.81,7.34-57.05,59.53-97.34,116.58-90,46.64,6,83.47,42.51,89.88,89.1,19.63-26.39,50.6-41.93,83.49-41.9,52.48,0,104.29,38.99,104.29,89.36v109.41h236.83v-223.36h.14c-.06-.93-.14-1.9-.14-2.86,0-32.63,26.45-59.08,59.08-59.08s59.08,26.45,59.08,59.08h0c0,.96-.1,1.91-.14,2.86h.14v220.85h69.15v-220.85h.14c-.04-.93-.14-1.9-.14-2.86,0-32.63,26.45-59.08,59.08-59.08s59.08,26.45,59.08,59.08h0c0,.96-.1,1.91-.14,2.86h.14v220.85h69.13v-220.85h.14c-.04-.93-.14-1.9-.14-2.86,0-32.63,26.45-59.08,59.08-59.08s59.08,26.45,59.08,59.08h0c0,.96-.1,1.91-.14,2.86h.14v220.85h631.75v-320.94h-109.6v-11.94h109.58v-120.36h-109.58v-12.22h109.58v-119.49h7.43v-25.99h-8.62Zm-2735.22,143.52h39.14l-.07-65.38h2.63v-9.81h18.27v9.81h2.39v1.82l25.04-40.36,24.25,39.95v-1.4h2.39v-9.81h18.27v9.81h2.63v65.35l52.99.03-.07-65.38h2.64v-9.81h18.26v9.81h2.39v1.82l25.05-40.36,24.23,39.95v-1.4h2.41v-9.81h18.26v9.81h2.63v65.35l53,.03-.07-65.38h2.63v-9.81h18.26v9.81h2.41v1.82l25.04-40.36,24.25,39.95v-1.4h2.39v-9.81h18.26v9.81h2.64v65.35l54.71.03-.07-65.38h2.63v-9.81h18.27v9.81h2.39v1.82l25.04-40.36,24.25,39.95v-1.4h2.39v-9.81h18.27v9.81h2.63v65.35h35.29v10.58h-45.87l-.64-34.27-36.4-59.97-37.01,59.62-.57,34.64-75.88-.03-.65-34.27-36.4-59.97-36.99,59.62-.57,34.64-74.16-.03-.65-34.27-36.4-59.97-36.99,59.62-.58,34.64-74.16-.03-.64-34.27-36.4-59.97-37.01,59.62-.56,34.61h-49.74v-10.59Zm-113.89,437.98h-232.54v-21.36h5.69v-64.81c0-20.53,16.64-37.17,37.17-37.17s37.17,16.64,37.17,37.17v64.82h71.11v-64.82c-.23-20.52,16.22-37.35,36.74-37.58,20.52-.23,37.35,16.22,37.58,36.74,0,.28,0,.56,0,.83v64.82h7.09v21.36Zm113.89-164.27H67.26v-18.2h90.79v-180.96h.14c-.04-.96-.14-1.9-.14-2.86,0-32.63,26.45-59.08,59.08-59.08s59.08,26.45,59.08,59.08h0c0,.96-.1,1.9-.14,2.86h.14v180.96h26.17v-180.96h.14c-.04-.96-.14-1.9-.14-2.86,0-32.63,26.45-59.08,59.08-59.08s59.08,26.45,59.08,59.08h0c0,.96-.1,1.9-.14,2.86h.16v180.96h101.21l-.02,18.2Zm622.96-118.12h-622.96v-19.01h35.25v-46.08h40.96v46.06h20.47v-46.06h40.96v46.06h46.94v-46.06h40.94v46.06h20.49v-46.06h40.96v46.06h46.92v-46.06h40.96v46.06h20.49v-46.06h40.94v46.06h46.94v-46.06h40.96v46.06h20.49v-46.06h40.94v46.06h37.33l.02,19.03Zm86.79-445.71c26.61,0,48.18,21.58,48.18,48.19s-21.58,48.18-48.19,48.18c-26.61,0-48.18-21.57-48.18-48.18,0-26.61,21.58-48.19,48.19-48.19h0m-24.77,196.72v134.72h-21.68v-134.74c0-5.99,4.86-10.84,10.85-10.84,5.98,0,10.83,4.85,10.84,10.84m-21.68,179.35h21.68v37.53h-21.68v-37.53Zm32.04,321.3h-28.39v-111.58h28.39v111.58Zm0-215.82v64.31h-28.39v-64.29h.06c0-.23-.03-.47-.03-.69,0-7.84,6.36-14.2,14.2-14.2s14.2,6.36,14.2,14.2c0,.23-.03.47-.04.69h.01Zm26.51-67.95h-21.67v-37.53h21.68v37.53Zm0-82.17h-21.67v-134.71c0-5.99,4.86-10.84,10.85-10.84,5.98,0,10.83,4.85,10.84,10.84v134.71Zm32.71,365.93h-28.39v-111.58h28.39v111.58Zm0-215.82v64.31h-28.39v-64.29h.03c0-.23-.03-.47-.03-.69,0-7.84,6.36-14.2,14.2-14.2s14.2,6.36,14.2,14.2c0,.23-.03.47-.04.69h.04Zm4.17-67.72h-21.68v-37.53h21.68v37.53Zm0-82.4h-21.68v-134.71c0-5.99,4.85-10.84,10.84-10.84s10.84,4.85,10.84,10.84v134.71Zm687.82-493.52h25.13v76.73h-25.13v-76.73Zm-749.39,0h25.13v76.73h-25.13v-76.73Zm106.6,145.45h187.53v-72.92h-187.49v-14.41h187.54v-49.49h3.56v-19.26h-3.07v-13.77h5.5v-29.59h15.56v29.6h5.48v13.77h-3.07v19.25l69.46-71.36,68.39,71.36v-19.26h-3.07v-13.77h5.48v-29.59h15.56v29.6h5.5v13.77h-3.08v19.25h4.01v49.5h188.86v14.41h-188.84v72.92h188.84v12.15h-562.6l-.04-12.16Zm511.13,87c0,19.05-15.45,34.49-34.5,34.49-19.05,0-34.49-15.45-34.49-34.5,0-19.05,15.44-34.49,34.49-34.49,19.05,0,34.5,15.44,34.5,34.49h0m-94.8,0c0,19.05-15.45,34.5-34.5,34.5-19.05,0-34.5-15.45-34.5-34.5s15.45-34.5,34.5-34.5h0c19.05,0,34.5,15.45,34.5,34.5m-97.11-3.66c0,21.07-17.08,38.16-38.16,38.16s-38.16-17.08-38.16-38.16,17.08-38.15,38.15-38.16c21.07,0,38.16,17.08,38.16,38.16m-105.21,3.66c0,19.05-15.45,34.5-34.5,34.5-19.05,0-34.5-15.45-34.5-34.5s15.45-34.5,34.5-34.5h0c19.05,0,34.5,15.44,34.5,34.49h0m-94.81,0c0,19.05-15.45,34.5-34.5,34.5-19.05,0-34.5-15.45-34.5-34.5s15.45-34.5,34.5-34.5h0c19.05,0,34.5,15.44,34.5,34.49h0m442.76,367.75h-32.28v-19.89h2.98v-45.39h-56.36v65.28h-17.32v-65.29h-56.75v45.39h2.8v19.9h-62.72v-19.89h2.98v-37.77h-56.34v57.66h-17.32v-57.66h-56.36v37.76h3.85v19.9h-63.24v-19.89h2.98v-37.77h-56.34v57.66h-17.32v-57.66h-56.36v37.76h3.85v19.9h-32.65v-181.62c11.53-42.53,49.81-72.31,93.87-73.01,43.54.27,81.63,29.34,93.38,71.26,14.12-51.58,67.38-81.94,118.95-67.82,33,9.04,58.78,34.82,67.82,67.82,14.08-51.55,67.29-81.92,118.83-67.83,34.83,9.52,61.46,37.63,69.08,72.92v178.28h0Zm.86-283.48h-562.79v-18.28h562.8v18.28Zm66.53,258.98h-21.68v-37.53h21.68v37.53Zm-21.68-82.17v-134.73c0-5.99,4.85-10.84,10.84-10.84s10.84,4.85,10.84,10.84v134.72h-21.68Zm32.04,365.93h-28.37v-111.59h28.39l-.02,111.59Zm0-215.82v64.31h-28.37v-64.31h.03c0-.23-.03-.47-.03-.69-.02-7.84,6.33-14.21,14.17-14.22,7.84-.02,14.21,6.33,14.22,14.17v.05c0,.23-.03.47-.03.69h0Zm26.51-67.95h-21.68v-37.53h21.68v37.53Zm0-82.17h-21.68v-134.73c0-5.99,4.85-10.84,10.84-10.84s10.84,4.85,10.84,10.84v134.73Zm32.71,365.93h-28.39v-111.59h28.39v111.59Zm0-215.82v64.31h-28.39v-64.31h.03c0-.23-.03-.47-.03-.69-.02-7.84,6.33-14.21,14.17-14.22,7.84-.02,14.21,6.33,14.22,14.17v.05c0,.23-.03.47-.03.69h.02Zm4.17-67.72h-21.67v-37.53h21.68v37.53Zm0-82.4h-21.67v-134.73c0-5.99,4.85-10.84,10.84-10.84s10.84,4.85,10.84,10.84v134.73Zm45.04-205.45h-185.31v-24.44h33.09l.35-73.33c3.76-25.3,28.68-44.86,58.88-44.86s55.14,19.56,58.88,44.86l.35,73.33h33.73l.04,24.44Zm674.94,75.98h21.36v28.81h-21.36v-28.81Zm0,33.84h21.36v36.76h-21.36v-36.76Zm-33-33.84h21.38v28.81h-21.38v-28.81Zm0,33.84h21.38v36.76h-21.38v-36.76Zm-21.77,56.27h98.79v12.22h-98.79v-12.22Zm76.13,56.3v60.66h-21.36v-60.66h.03c0-.07,21.3,0,21.3,0h.03Zm-32.98,0v60.66h-21.38v-60.66h21.38Zm-662.17-40.58h613.42v19.27h-613.42v-19.27Zm600.82,147.9l-601.96-.6v-18.5h63.11v-67.94h44.9v67.94h22.43v-67.94h44.89v67.94h76.01v-67.94h44.9v67.94h22.43v-67.94h44.9v67.94h74.84v-67.94h44.9v67.94h22.45v-67.94h44.9v67.94h51.31v19.1Zm61.34,63.05v162.38h-21.38v-162.38h.03c0-.17-.03-.35-.03-.52,0-5.9,4.79-10.69,10.69-10.69s10.69,4.79,10.69,10.69c0,.17-.03.35-.03.52h.03Zm32.98,0v162.38h-21.36v-162.38h.03c0-.17-.03-.35-.03-.52,0-5.9,4.78-10.68,10.68-10.68s10.68,4.78,10.68,10.68c0,.17,0,.35-.03.52h.02Zm-81.73-82.15v-11.94h110v11.94h-110Zm520.25,82.14h.03c0-.17-.03-.35-.03-.52,0-5.9,4.79-10.69,10.69-10.69s10.69,4.79,10.69,10.69h0c0,.17-.03.35-.03.52h.03v162.38h-21.38v-162.38Zm-32.98,0h0v-.52c0-5.9,4.78-10.68,10.68-10.68s10.68,4.78,10.68,10.68c0,.17,0,.35-.03.52h.03v162.38h-21.36v-162.38Zm-234.93,195.1h-87.85v-94.97h87.85v94.97Zm152.84,0h-87.82v-94.97h87.82v94.97Zm-253.5-130.74v-195.93h.14c-.04-.93-.14-1.84-.14-2.77,0-31.66,25.66-57.32,57.32-57.32h0c31.12.1,56.27,25.4,56.17,56.52,0,.27,0,.53,0,.8,0,.93-.1,1.87-.14,2.77h.14v181.62h39.35v-181.62h.14c-.04-.93-.14-1.84-.14-2.77,0-31.66,25.66-57.32,57.32-57.32h0c31.12.1,56.27,25.4,56.17,56.52,0,.27,0,.53,0,.8,0,.93-.1,1.87-.14,2.77h.14v195.95h-266.33Zm87.07-330.46h-70.89v-51.09h70.88v51.09Zm-70.88-64.38c0-19.57,15.87-35.44,35.44-35.44s35.44,15.87,35.44,35.44h-70.88Zm70.88,109.93h-70.89v-33.18h70.88v33.18Zm82.11-45.55h-70.89v-51.09h70.88v51.09Zm-70.88-64.38c0-19.57,15.87-35.44,35.44-35.44s35.44,15.87,35.44,35.44h-70.88Zm70.88,109.93h-70.89v-33.18h70.88v33.18Zm82.11-45.55h-70.89v-51.09h70.88v51.09Zm-70.88-64.38c0-19.57,15.87-35.44,35.44-35.44s35.44,15.87,35.44,35.44h-70.88Zm70.88,109.93h-70.89v-33.18h70.88v33.18Zm16.55-186.79l-36.6-.14-97.5-149.84-98.9,149.15-34.97.04v-14.81h5.78v-16.89h-3.15v-15.35h7.94v-28.43h11.52v28.43h7.92v15.35h-4.83v16.89h1.56l107.14-162.45,105.73,162.45h4.26v-16.89h-4v-15.35h7.94v-28.43h11.52v28.43h7.92v15.35h-3.98v16.89h4.71v15.6Zm-2682.17,0l-36.6-.14-97.5-149.84-98.89,149.15-34.98.04v-14.81h5.79v-16.89h-3.15v-15.35h7.92v-28.43h11.53v28.43h7.92v15.35h-4.82v16.89h1.56l107.13-162.45,105.72,162.45h4.24v-16.89h-3.96v-15.35h7.92v-28.43h11.53v28.43h7.92v15.35h-3.98v16.89h4.67l.04,15.6Zm2782.9,236.98h.03c0-.07,21.32,0,21.32,0h.03v60.66h-21.38v-60.66Zm-32.98,0h21.36v60.66h-21.36v-60.66Zm21.36-75.8h-21.36v-36.77h21.36v36.77Zm0-41.79h-21.36v-28.81h21.36v28.81Zm33,41.79h-21.38v-36.77h21.38v36.77Zm0-41.79h-21.38v-28.81h21.38v28.81Zm-2796.18-47.58h-10.56v-3.52c0-11.78-9.53-21.33-21.31-21.34-11.78,0-21.33,9.53-21.34,21.31v3.57h-12.3v-3.54c0-11.78-9.53-21.33-21.31-21.34s-21.33,9.53-21.34,21.31v3.57h-12.31v-29.34c0-11.78-9.53-21.33-21.31-21.34-11.78,0-21.33,9.53-21.34,21.31v29.37h-12.3v-3.54c0-11.78-9.53-21.33-21.31-21.34s-21.33,9.53-21.34,21.31v3.57h-12.31v-3.54c0-11.77-9.54-21.32-21.32-21.32s-21.32,9.54-21.32,21.32v3.54h-11.14v-.61c0-20.78,14.28-37.62,31.89-37.62,11.94.43,22.6,7.61,27.48,18.52,4.87-10.91,15.53-18.09,27.47-18.52,7.28.07,14.27,2.89,19.56,7.9,1.87-19.88,19.5-34.47,39.37-32.61,17.11,1.61,30.73,15.05,32.56,32.14,5.21-4.72,11.98-7.36,19.01-7.42,11.94.43,22.59,7.61,27.47,18.52,4.88-10.9,15.53-18.09,27.47-18.52,17.63,0,31.91,16.82,31.91,37.62v.61"/></g><path id="Path_7142" class="cls-2" d="m2209.47,261.67c16.09.64,32.09-2.78,46.52-9.93,26.7-13.22,62.89-5.76,71.49-.93,3.74-13.47,18.42-9.52,25.18-2.16,12.98-1.15,26.42-22.92,47.84-17.57,21.42,5.35,42.96,6.28,73.5,6.54-32.27,17.16-71.4-1.53-90.23,16.93s-34.72,17.07-24.36,21.39c14.39,6.02,25.53,9.26-15.33,15.22-31.74,4.64-27.48,1.31-13.99-12.58,5.86-6.04-11.58-10.22-22.38-12.99-40.69-10.42-55.35,14.73-98.23-3.94"/><path id="Path_7143" class="cls-2" d="m2475.61,88.36c15.21,5.29,31.51,6.67,47.39,4.02,29.4-4.88,61.85,12.78,68.67,19.91,7.48-11.81,20.38-3.76,24.71,5.26,12.76,2.67,31.95-14.26,50.89-2.9,18.94,11.36,39.25,18.5,68.43,27.63-35.87,7.04-67.89-22.22-91.26-10.05-23.37,12.18-38.17,6.24-29.53,13.39,12.01,9.94,21.74,16.28-19.1,10.11-31.71-4.78-26.67-6.74-9.71-16.1,7.36-4.07-8.11-13.15-17.64-18.94-35.9-21.8-57.23-2.01-92.84-32.33"/></g></svg>