<?xml version="1.0" encoding="UTF-8"?><svg id="ARTWORK" xmlns="http://www.w3.org/2000/svg" viewBox="0 0 1150.43 1150.43"><defs><style>.cls-1{fill:#2881f2;stroke-width:0px;}</style></defs><g id="Group_17113"><g id="Group_17112"><path id="Path_7087" class="cls-1" d="m307.83,214.07c-69.13,0-125.17,56.04-125.17,125.17s56.04,125.17,125.17,125.17,125.17-56.03,125.17-125.16c0-69.13-56.03-125.18-125.16-125.19,0,0,0,0-.01,0"/><path id="Path_7088" class="cls-1" d="m611.17,214.07c-69.13,0-125.17,56.04-125.17,125.17s56.04,125.17,125.17,125.17c69.13,0,125.17-56.03,125.17-125.16,0-69.13-56.03-125.18-125.16-125.19,0,0,0,0-.01,0"/><path id="Path_7089" class="cls-1" d="m959.71,539.29l-148.69,80.65c-5.69,3.09-9.24,9.04-9.24,15.52v179.1c0,6.48,3.55,12.43,9.24,15.52l148.69,80.65c8.57,4.65,19.29,1.47,23.94-7.1,1.4-2.59,2.14-5.48,2.14-8.43v-340.37c0-9.75-7.9-17.65-17.65-17.65-2.94,0-5.84.73-8.42,2.14"/><path id="Path_7090" class="cls-1" d="m662.43,504.34h-405.86c-56.29,0-101.92,45.63-101.92,101.92,0,0,0,.01,0,.02v237.45c0,56.29,45.63,101.92,101.92,101.92h405.86c56.29,0,101.92-45.63,101.92-101.92h0v-237.45c.01-56.29-45.61-101.93-101.91-101.94h-.02m-111.62,229.93l-132.88,92.3c-4.91,3.4-11.64,2.18-15.04-2.73-1.26-1.81-1.93-3.97-1.92-6.17v-184.58c0-5.97,4.82-10.82,10.8-10.83,2.21,0,4.36.67,6.17,1.92l132.88,92.31c4.9,3.41,6.11,10.15,2.69,15.05-.73,1.05-1.64,1.96-2.69,2.69"/></g></g></svg>