<?xml version="1.0" encoding="UTF-8"?><svg id="ARTWORK" xmlns="http://www.w3.org/2000/svg" viewBox="0 0 1150.43 1150.43"><defs><style>.cls-1{fill:#2881f2;stroke-width:0px;}</style></defs><g id="Group_17128"><path id="Path_7113" class="cls-1" d="m604.02,655.75l-124.8,141.91-85.68-89.19-1.62-4.23-141.94,165.6h496.68l-142.65-214.1Z"/><g id="Group_17127"><g id="Group_17126"><path id="Path_7114" class="cls-1" d="m344.57,544.61c32.15,0,58.22,26.07,58.22,58.22s-26.07,58.22-58.22,58.22-58.22-26.07-58.22-58.22h0c0-32.15,26.07-58.22,58.22-58.22"/><path id="Path_7115" class="cls-1" d="m180.18,946.42h647.59v-492.39H180.18v492.39Zm602.5-38.11H225.28v-416.12h557.4v416.12Z"/><path id="Path_7116" class="cls-1" d="m267.31,377.5v55.58h45.1v-17.47h557.39v416.14h-20.35v38.11h65.47v-492.35H267.31Z"/></g></g></g></svg>