<?xml version="1.0" encoding="UTF-8"?><svg id="ARTWORK" xmlns="http://www.w3.org/2000/svg" viewBox="0 0 913.13 892.89"><defs><style>.cls-1{fill:#3072e4;stroke-width:0px;}</style></defs><path class="cls-1" d="m879.6,4.52H194.05c-14.16,0-25.5,11.33-25.5,25.5v576.01H33.53c-14.16,0-25.5,11.33-25.5,25.5v151.09c0,58.55,47.21,105.76,105.76,105.76h683.66c59.49,0,107.65-48.16,107.65-107.65V30.96c0-14.16-11.33-26.44-25.5-26.44ZM168.56,784.5c0,30.22-24.55,54.77-54.77,54.77s-53.82-25.5-53.82-54.77v-125.59h108.59v125.59Zm684.6-2.83c0,31.16-25.5,56.66-56.66,56.66H204.44c9.44-16.05,15.11-33.99,15.11-54.77V56.46h633.61v725.21Z"/><path class="cls-1" d="m326.25,759h420.21c14.16,0,25.5-11.33,25.5-25.5s-11.33-25.5-25.5-25.5h-420.21c-14.16,0-25.5,11.33-25.5,25.5s11.33,25.5,25.5,25.5Z"/><path class="cls-1" d="m326.25,627.75h420.21c14.16,0,25.5-11.33,25.5-25.5s-11.33-25.5-25.5-25.5h-420.21c-14.16,0-25.5,11.33-25.5,25.5s11.33,25.5,25.5,25.5Z"/><path class="cls-1" d="m326.25,496.49h420.21c14.16,0,25.5-11.33,25.5-25.5s-11.33-25.5-25.5-25.5h-420.21c-14.16,0-25.5,11.33-25.5,25.5s11.33,25.5,25.5,25.5Z"/><path class="cls-1" d="m697.31,195.94c1.94,5.66-1.07,11.82-6.73,13.76l-40.98,14.06c-5.66,1.94-11.82-1.07-13.76-6.73-1.94-5.66,1.07-11.82,6.73-13.76l40.98-14.06c5.66-1.94,11.82,1.07,13.76,6.73Z"/><path class="cls-1" d="m652.78,103.04c4.27,4.19,4.33,11.05.13,15.32l-33.95,34.55c-4.16,4.23-11.01,4.36-15.32.13-4.27-4.19-4.33-11.05-.13-15.32l33.95-34.55c4.21-4.27,11.06-4.32,15.32-.13Z"/><path class="cls-1" d="m707.03,305.92l-48.01-6.43c-5.93-.79-10.09-6.24-9.3-12.17.79-5.93,6.23-10.09,12.17-9.3l48.01,6.43c5.93.79,10.09,6.24,9.3,12.17-.8,5.98-6.3,10.08-12.17,9.3Z"/><path class="cls-1" d="m444.4,349.69l11.68-5.1,34.59,51.67c2.48,3.55,6.61,4.53,9.73,3.17l22.59-9.85c4.67-2.04,6.09-7.29,3.27-11.63l-32.79-49.67c19.47-8.49,40.89-10.41,62-6.64l56.09,11.69c9.39,2.39,17.92-7.81,13.84-17.16l-22.42-51.41c14.46-7.23,21.49-25.13,14.69-40.71-6.79-15.58-23.91-22.95-39.83-16.93l-22.42-51.41c-4.08-9.35-16.24-9.6-21.99-1.53l-29.59,49.06c-10.82,17.7-27.58,32.42-47.05,40.92l-49.07,21.4c-12.46,5.44-18.17,19.98-12.74,32.44l16.99,38.95c5.44,12.46,19.98,18.17,32.44,12.74Z"/></svg>