<?xml version="1.0" encoding="UTF-8"?><svg id="ARTWORK" xmlns="http://www.w3.org/2000/svg" viewBox="0 0 1150.43 1150.43"><defs><style>.cls-1{fill:#2881f2;stroke-width:0px;}</style></defs><path id="Path_7135" class="cls-1" d="m1095.31,931.18h-417.34c.35,7.09-.64,14.17-2.93,20.89-3.78,6.21-10.2,10.35-17.42,11.24h-156.55c-7.57-.64-14.33-4.98-18.07-11.58-2.27-6.59-3.05-13.61-2.28-20.54H64c-.76,4.93-1.19,9.91-1.27,14.91v4.25c0,4.19,2.09,8.1,5.58,10.42l9.84,6.56c20.57,13.71,44.75,21.03,69.47,21.03h863.46c24.72,0,48.89-7.32,69.47-21.03l9.84-6.56c3.49-2.32,5.58-6.23,5.58-10.42v-4.25c0-2.59-.32-4.57-.64-14.91"/><path id="Path_7136" class="cls-1" d="m665.44,934.23h-172.2c-1.73,0-5.72-.24-5.72,7.54-.51,8.29,5.33,15.62,13.52,16.96h156.55c6.05,0,13.52-10.91,13.52-16.96,0-7.78-3.96-7.54-5.72-7.54"/><rect id="Rectangle_7710" class="cls-1" x="785.72" y="374.51" width="74.88" height="44.62"/><path id="Path_7139" class="cls-1" d="m973.85,374.51h-66.59v44.62h42.86v446.71H208.6v-446.71h164.34v-44.62h-188.1c-15.56,0-28.18,12.62-28.18,28.18v485.3c0,15.56,12.62,28.18,28.18,28.18h789.01c15.56,0,28.18-12.62,28.18-28.18v-485.3c0-15.56-12.62-28.18-28.18-28.18"/><path id="Path_7140" class="cls-1" d="m762.97,482.13c0,50.53-81.34,94.89-186.09,94.89s-186.09-43.13-186.09-94.89v-98.57l172.53,72.71,12.32,3.69,13.56-4.93,173.76-72.71v99.81Zm140.49-16.02v33.29c0,4.93-7.4,12.32-18.49,12.32-9.86,0-18.49-4.93-18.49-12.32v-30.83c.97-4.18,3.64-7.76,7.37-9.87v-150.34l-104.75,45.6-186.09,80.13-342.58-146.68,338.91-145.42,338.9,145.42-24.65,9.86v160.21c3.69,2.47,3.69,4.93,9.86,8.62"/></svg>