<?xml version="1.0" encoding="UTF-8"?><svg id="ARTWORK" xmlns="http://www.w3.org/2000/svg" viewBox="0 0 913.13 892.89"><defs><style>.cls-1{fill:#3072e4;stroke-width:0px;}</style></defs><path class="cls-1" d="m879.6,4.52H194.05c-14.16,0-25.5,11.33-25.5,25.5v576.01H33.53c-14.16,0-25.5,11.33-25.5,25.5v151.09c0,58.55,47.21,105.76,105.76,105.76h683.66c59.49,0,107.65-48.16,107.65-107.65V30.96c0-14.16-11.33-26.44-25.5-26.44ZM168.56,784.5c0,30.22-24.55,54.77-54.77,54.77s-53.82-25.5-53.82-54.77v-125.59h108.59v125.59Zm684.6-2.83c0,31.16-25.5,56.66-56.66,56.66H204.44c9.44-16.05,15.11-33.99,15.11-54.77V56.46h633.61v725.21Z"/><path class="cls-1" d="m326.25,759h420.21c14.16,0,25.5-11.33,25.5-25.5s-11.33-25.5-25.5-25.5h-420.21c-14.16,0-25.5,11.33-25.5,25.5s11.33,25.5,25.5,25.5Z"/><path class="cls-1" d="m326.25,627.75h420.21c14.16,0,25.5-11.33,25.5-25.5s-11.33-25.5-25.5-25.5h-420.21c-14.16,0-25.5,11.33-25.5,25.5s11.33,25.5,25.5,25.5Z"/><path class="cls-1" d="m326.25,496.49h420.21c14.16,0,25.5-11.33,25.5-25.5s-11.33-25.5-25.5-25.5h-420.21c-14.16,0-25.5,11.33-25.5,25.5s11.33,25.5,25.5,25.5Z"/><path class="cls-1" d="m611.54,213.45c-4.25,0-7.69,3.66-7.69,8.18v42.53c0,35.48-25.03,64.34-60.5,64.34s-60.5-28.86-60.5-64.34v-42.53c0-4.52-3.44-8.18-7.69-8.18s-7.69,3.66-7.69,8.18v42.53c0,41.73,27.04,76.17,67.71,80.28v42.39h-20.72c-4.52,0-8.18,3.66-8.18,8.18s3.66,8.18,8.18,8.18h57.8c4.52,0,8.18-3.66,8.18-8.18s-3.66-8.18-8.18-8.18h-20.72v-42.39c40.67-4.11,67.71-38.55,67.71-80.28v-42.53c0-4.52-3.44-8.18-7.69-8.18Zm-116.31-71.12c0-25.63,21.58-46.48,48.11-46.48s48.11,20.85,48.11,46.48v4.61h-25.45c-5.65,0-10.24,4.43-10.24,9.89s4.58,9.89,10.24,9.89h25.45v11.87h-25.45c-5.65,0-10.24,4.43-10.24,9.89s4.58,9.89,10.24,9.89h25.45v11.87h-25.45c-5.65,0-10.24,4.43-10.24,9.89s4.58,9.89,10.24,9.89h25.45v11.87h-25.45c-5.65,0-10.24,4.43-10.24,9.89s4.58,9.89,10.24,9.89h25.45v5.93c0,25.63-21.58,46.48-48.11,46.48s-48.11-20.85-48.11-46.48v-125.26Z"/></svg>