<?xml version="1.0" encoding="UTF-8"?><svg id="ARTWORK" xmlns="http://www.w3.org/2000/svg" viewBox="0 0 1150.43 1150.43"><defs><style>.cls-1{fill:#2881f2;stroke-width:0px;}</style></defs><g id="Group_17131"><g id="Group_17131-2"><path id="Path_7123" class="cls-1" d="m167.19,360.35v462.59c0,66.42,53.85,120.27,120.27,120.27h596.73c56.2,0,101.75-45.56,101.75-101.75v-194.3c0-56.2-45.56-101.75-101.75-101.75h-46.26v-185.06c0-56.2-45.56-101.75-101.75-101.75h-467.23c-56.2,0-101.75,45.56-101.75,101.75m670.74,240.56h46.26c25.55,0,46.26,20.71,46.26,46.26v194.28c0,25.55-20.71,46.26-46.26,46.26s-46.26-20.71-46.26-46.26v-240.54ZM222.7,360.35c.01-25.53,20.71-46.23,46.24-46.24h468.14c25.54,0,46.25,20.7,46.26,46.24v481.1c-.04,16.08,3.77,31.95,11.1,46.26h-506.99c-35.77,0-64.76-28.99-64.76-64.76h0v-462.6Z"/><path id="Path_7124" class="cls-1" d="m489.15,540.77v-138.78c0-15.33-12.43-27.75-27.75-27.75h-148.03c-15.33,0-27.75,12.43-27.75,27.75v138.77c0,15.33,12.43,27.75,27.75,27.75h148.02c15.33,0,27.75-12.43,27.75-27.75m-55.51-27.75h-92.51v-83.25h92.52v83.25Z"/><path id="Path_7125" class="cls-1" d="m535.4,429.75c0,15.33,12.42,27.75,27.74,27.76h129.52c15.33,0,27.76-12.43,27.76-27.76s-12.43-27.76-27.76-27.76h-129.52c-15.33,0-27.75,12.43-27.75,27.75h0"/><path id="Path_7126" class="cls-1" d="m535.4,540.77c0,15.32,12.42,27.73,27.74,27.74h129.52c15.33,0,27.76-12.43,27.76-27.76s-12.43-27.76-27.76-27.76h-129.52c-15.33,0-27.75,12.43-27.75,27.75h0"/><path id="Path_7127" class="cls-1" d="m285.61,661.04c0,15.33,12.43,27.75,27.75,27.75h379.31c15.33,0,27.76-12.43,27.76-27.76s-12.43-27.76-27.76-27.76h-379.31c-15.33,0-27.75,12.43-27.75,27.75h0"/><path id="Path_7128" class="cls-1" d="m285.61,772.06c0,15.33,12.43,27.75,27.75,27.75h379.31c15.33,0,27.76-12.43,27.76-27.76s-12.43-27.76-27.76-27.76h-379.31c-15.33,0-27.75,12.43-27.75,27.75h0"/></g></g></svg>