<?xml version="1.0" encoding="UTF-8"?><svg id="ARTWORK" xmlns="http://www.w3.org/2000/svg" viewBox="0 0 738.63 892.89"><defs><style>.cls-1{fill:#3072e4;stroke-width:0px;}</style></defs><path class="cls-1" d="m663.47,4.08H161.43c-39.09,0-70.9,31.8-70.9,70.9v2.48h-15.37c-39.09,0-70.9,31.8-70.9,70.9v669.55c0,39.09,31.8,70.9,70.9,70.9h502.04c38.97,0,70.7-31.61,70.89-70.54h15.38c39.09,0,70.9-31.8,70.9-70.9V74.98c0-39.09-31.8-70.9-70.9-70.9Zm-86.27,847.6H75.16c-18.62,0-33.77-15.15-33.77-33.77V148.36c0-18.62,15.15-33.77,33.77-33.77h330.3v176.93c0,16.51,13.38,29.89,29.89,29.89h175.62v496.5c0,.12,0,.24,0,.36-.19,18.46-15.26,33.41-33.76,33.41Zm120.04-104.31c0,18.62-15.15,33.77-33.77,33.77h-15.37v-497.93c0-6.44-2.62-12.75-7.2-17.29l-182.66-181.38c-4.6-4.56-10.69-7.08-17.17-7.08H127.66v-2.48c0-18.62,15.15-33.77,33.77-33.77h502.04c18.62,0,33.77,15.15,33.77,33.77v672.39Z"/></svg>