<?xml version="1.0" encoding="UTF-8"?><svg id="ARTWORK" xmlns="http://www.w3.org/2000/svg" viewBox="0 0 1150.43 1150.43"><defs><style>.cls-1{fill:#2881f2;stroke-width:0px;}</style></defs><g id="Group_17186"><g id="Group_17185"><path id="Path_7166" class="cls-1" d="m517.98,415.78c44.68,0,80.9-36.22,80.9-80.9,0-44.68-36.22-80.9-80.9-80.9-44.68,0-80.9,36.22-80.9,80.89,0,44.68,36.22,80.9,80.9,80.9h0"/><path id="Path_7167" class="cls-1" d="m495.53,625.61h3.46c6.24,1.43,12.65,2.02,19.05,1.73h3.46c40.52-.04,80.14-11.95,113.97-34.24v-106.5c0-20.67-16.76-37.42-37.42-37.42h-160.16c-20.67,0-37.42,16.76-37.42,37.42v100.66c20.77,15.24,44.19,26.48,69.07,33.16l25.98,5.19Z"/><path id="Path_7168" class="cls-1" d="m511.51,762.45c-10.74.48-21.5-.5-31.98-2.9h-5.81l-31.76-6.35v162.46c0,30.31,24.57,54.89,54.89,54.89h42.27c30.31,0,54.89-24.57,54.89-54.89v-161.82c-25.16,5.71-50.88,8.6-76.67,8.61h-5.81Z"/><path id="Path_7169" class="cls-1" d="m215.49,258.07c-38.71-10.11-78.28,13.07-88.39,51.78-9.71,37.18,11.3,75.47,47.87,87.26,3.45-48.7,17.27-96.1,40.52-139.04"/><path id="Path_7170" class="cls-1" d="m174.28,430.58h-44.58c-20.67,0-37.42,16.76-37.42,37.42v176.94c0,20.67,16.76,37.42,37.42,37.42h2.78c-2.03,5.82-3.07,11.94-3.07,18.1v141.99c0,30.31,24.57,54.89,54.89,54.89h26.34c30.31,0,54.89-24.57,54.89-54.89h0v-142c0-6.16-1.04-12.28-3.07-18.1h2.79c8.42,0,16.59-2.84,23.19-8.08-69.83-62.16-111.09-150.25-114.14-243.69"/><path id="Path_7171" class="cls-1" d="m919.05,328.26c0-40.01-32.44-72.44-72.44-72.43-8.26,0-16.47,1.42-24.26,4.18,23.31,42.84,37.08,90.21,40.36,138.87,32.95-7.51,56.33-36.82,56.34-70.62"/><path id="Path_7172" class="cls-1" d="m810.87,601.06l103.79,102.88v-3.49c0-6.16-1.03-12.28-3.07-18.1h2.78c20.67,0,37.42-16.76,37.42-37.42h0v-176.93c0-20.67-16.76-37.42-37.42-37.42h-51.1c-.77,26.68-4.67,53.18-11.64,78.95-9.11,32.32-22.84,63.15-40.76,91.54"/><path id="Path_7173" class="cls-1" d="m1005.25,839.01l-226.07-224.08c-6.56-6.3-7.41-16.5-1.98-23.8,94.44-142.57,55.43-334.7-87.14-429.14-142.57-94.44-334.7-55.43-429.14,87.14-94.44,142.57-55.43,334.7,87.14,429.14,87.39,57.89,198.14,67.64,294.3,25.9,8.31-4.13,18.39-1.62,23.79,5.93l186.41,259.78c69.4,81.3,124.93,85.27,170.56,45.61,45.61-37.67,53.55-91.22-17.85-176.49m-483.85-184.39h-3.95c-7.33.33-14.66-.34-21.81-1.98h-3.95l-29.75-5.93c-124.03-34.42-196.67-162.87-162.25-286.9,34.42-124.03,162.87-196.67,286.9-162.25,123.12,34.17,195.77,161.09,162.89,284.56-28.79,102.1-121.96,172.6-228.05,172.54"/></g></g></svg>