<?xml version="1.0" encoding="UTF-8"?><svg id="ARTWORK" xmlns="http://www.w3.org/2000/svg" viewBox="0 0 1150.43 1150.43"><defs><style>.cls-1{fill:#3890ff;stroke-width:0px;}</style></defs><g id="Group_17124"><g id="Group_508"><path class="cls-1" d="m911.03,652.62H101.91c-40.56,0-73.44-32.88-73.44-73.44s32.88-73.44,73.44-73.44h809.12c40.56,0,73.44,32.88,73.44,73.44s-32.88,73.44-73.44,73.44Z"/><path class="cls-1" d="m644.32,1013.94c-19.32,0-38.62-7.58-53.04-22.64-28.06-29.29-27.07-75.78,2.22-103.84l322.87-309.33-293.16-318.45c-27.47-29.84-25.55-76.3,4.29-103.78,29.84-27.47,76.3-25.55,103.78,4.29l390.69,424.39-426.85,408.95c-14.23,13.64-32.53,20.41-50.8,20.41Z"/></g></g></svg>