<?xml version="1.0" encoding="UTF-8"?><svg id="ARTWORK" xmlns="http://www.w3.org/2000/svg" viewBox="0 0 1150.43 1150.43"><defs><style>.cls-1{fill:#2881f2;stroke-width:0px;}</style></defs><g id="Group_17190"><g id="Group_17189"><path id="Path_7176" class="cls-1" d="m681.5,660.4c0,59.12-47.92,107.04-107.04,107.04s-107.04-47.92-107.04-107.04,47.92-107.04,107.04-107.04h0c59.12,0,107.04,47.92,107.04,107.04"/><path id="Path_7177" class="cls-1" d="m574.47,1045.16c-102.7,0-183.73-23.14-183.73-51.56v-80.02c0-72.74,58.97-131.71,131.71-131.71h104.05c72.74,0,131.71,58.97,131.71,131.71v80.02c0,38.54-81,51.56-183.73,51.56"/><path id="Path_7178" class="cls-1" d="m296.75,660.4c0,59.12-47.92,107.04-107.04,107.04s-107.04-47.92-107.04-107.04c0-59.12,47.92-107.04,107.04-107.04h0c59.12,0,107.04,47.92,107.04,107.04"/><path id="Path_7179" class="cls-1" d="m189.74,1045.16c-102.7,0-183.73-23.14-183.73-51.56v-80.02c0-72.74,58.97-131.71,131.71-131.71h104.05c72.74,0,131.71,58.97,131.71,131.71v80.02c0,38.54-81,51.56-183.73,51.56"/><path id="Path_7180" class="cls-1" d="m1066.27,660.4c0,59.12-47.92,107.04-107.04,107.04s-107.04-47.92-107.04-107.04,47.92-107.04,107.04-107.04h0c59.12,0,107.04,47.92,107.04,107.04"/><path id="Path_7181" class="cls-1" d="m959.22,1045.16c-102.7,0-183.73-23.14-183.73-51.56v-80.02c0-72.74,58.97-131.71,131.71-131.71h104.05c72.74,0,131.71,58.97,131.71,131.71v80.02c0,38.54-81,51.56-183.73,51.56"/><path id="Path_7182" class="cls-1" d="m771.23,567.16c-7.16,0-13.99-3.03-18.81-8.32l-64.99-68.44h-88.38c-31.72-.04-57.42-25.74-57.46-57.46v-105.37c.04-31.72,25.74-57.43,57.46-57.46h185.71c31.72.04,57.43,25.74,57.46,57.46v105.37c-.12,27.01-18.95,50.33-45.33,56.13v52.45c.04,10.57-6.45,20.07-16.32,23.86-2.98,1.16-6.16,1.76-9.36,1.76m-172.16-274.09c-19.06.02-34.51,15.47-34.53,34.53v105.37c.02,19.06,15.47,34.51,34.53,34.53h98.23l71.91,75.73c.71.96,1.99,1.3,3.08.83,1.06-.35,1.76-1.37,1.7-2.48v-73.97l11.31-.16c18.83-.34,33.95-15.66,34.03-34.49v-105.37c-.02-19.06-15.47-34.51-34.53-34.53l-185.72.02Z"/><path id="Path_7183" class="cls-1" d="m568.84,139.71h-256.88c-35.14,0-63.62,28.48-63.63,63.61h0v145.73c0,34.77,27.94,63.09,62.71,63.58v86.64c0,10.8,8.76,19.56,19.56,19.56,5.48,0,10.71-2.3,14.41-6.34l94.77-99.79h129.07c35.14,0,63.62-28.48,63.62-63.62h0v-145.73c0-35.14-28.48-63.62-63.61-63.63,0,0-.01,0-.02,0m-201.82,169.97c-15.95,0-28.88-12.93-28.88-28.88,0-15.95,12.93-28.88,28.88-28.88,15.95,0,28.88,12.93,28.88,28.88s-12.93,28.88-28.88,28.88h0m74.74,0c-15.95,0-28.88-12.93-28.88-28.88,0-15.95,12.93-28.88,28.88-28.88,15.95,0,28.88,12.93,28.88,28.88s-12.93,28.88-28.88,28.88h0m74.74,0c-15.95,0-28.88-12.93-28.88-28.88,0-15.95,12.93-28.88,28.88-28.88,15.95,0,28.88,12.93,28.88,28.88s-12.93,28.88-28.88,28.88h0"/></g></g></svg>