<?xml version="1.0" encoding="UTF-8"?><svg id="ARTWORK" xmlns="http://www.w3.org/2000/svg" viewBox="0 0 1150.43 1150.43"><defs><style>.cls-1{fill:#2881f2;stroke-width:0px;}</style></defs><g id="Group_17130"><g id="Group_17129"><path id="Path_7117" class="cls-1" d="m318.93,947.06h-81.08c-18.02,0-32.63-14.61-32.63-32.63,0,0,0,0,0,0v-112.89c0-18.02,14.61-32.63,32.63-32.63h81.08c18.02,0,32.63,14.61,32.63,32.63h0v112.89c0,18.02-14.61,32.63-32.63,32.63"/><path id="Path_7118" class="cls-1" d="m512.78,947.07h-81.08c-18.02,0-32.63-14.61-32.63-32.63h0v-212.98c0-18.02,14.61-32.63,32.63-32.63h81.07c18.02,0,32.63,14.61,32.63,32.63h0v212.97c0,18.02-14.6,32.64-32.62,32.64h0"/><path id="Path_7119" class="cls-1" d="m706.62,947.06h-81.08c-18.02,0-32.63-14.61-32.63-32.63h0v-341.51c0-18.02,14.61-32.63,32.63-32.64h81.07c18.02,0,32.63,14.61,32.63,32.63h0v341.51c0,18.02-14.61,32.63-32.63,32.63h0"/><path id="Path_7120" class="cls-1" d="m900.47,947.06h-81.08c-18.02,0-32.63-14.61-32.63-32.63v-480.22c0-18.02,14.61-32.63,32.63-32.63h81.08c18.02,0,32.63,14.61,32.63,32.63v480.2c0,18.02-14.61,32.63-32.63,32.63"/><path id="Path_7121" class="cls-1" d="m264.41,685.82c-12.45,0-22.54-10.08-22.55-22.53,0-7.11,3.35-13.8,9.04-18.06l518.87-387.8c9.87-7.58,24.02-5.72,31.6,4.15,7.58,9.87,5.72,24.02-4.15,31.6-.15.12-.31.23-.47.35l-518.87,387.79c-3.89,2.91-8.62,4.49-13.48,4.48"/><path id="Path_7122" class="cls-1" d="m811.91,352.27l62.02-144.55-156.19,18.54,94.17,126Z"/></g></g></svg>