<?xml version="1.0" encoding="UTF-8"?><svg id="ARTWORK" xmlns="http://www.w3.org/2000/svg" viewBox="0 0 1150.43 1150.43"><defs><style>.cls-1{isolation:isolate;}.cls-2{fill:#2881f2;stroke-width:0px;}</style></defs><g id="_"><g class="cls-1"><path class="cls-2" d="m500.94,203.46v120.72c-46.36,12.19-81.61,29.52-105.75,51.97-24.15,22.45-43.46,51.16-57.95,86.12-14.49,34.96-21.73,77.46-21.73,127.5,59.88,0,103.97,16.9,132.31,50.7,28.33,33.8,42.49,69.7,42.49,107.69,0,45.07-15.78,82.91-47.32,113.48-31.56,30.59-68.25,45.88-110.1,45.88-54.08,0-100.77-23.3-140.04-69.91-39.28-46.61-58.91-110.43-58.91-191.45,0-71.38,15.45-138.24,46.36-200.61,30.91-62.36,72.92-115.73,126.04-160.1,53.12-44.37,117.98-71.69,194.61-81.99Zm472.27,0v120.72c-46.36,12.19-81.61,29.52-105.76,51.97-24.15,22.45-43.46,51.16-57.95,86.12-14.49,34.96-21.73,77.46-21.73,127.5,59.23,0,103.17,16.9,131.83,50.7,28.64,33.8,42.98,69.7,42.98,107.69,0,45.07-15.78,82.91-47.32,113.48-31.55,30.59-68.25,45.88-110.1,45.88-54.73,0-101.57-23.3-140.52-69.91-38.96-46.61-58.43-110.43-58.43-191.45,0-71.38,15.45-138.24,46.36-200.61,30.91-62.36,72.92-115.73,126.04-160.1,53.12-44.37,117.98-71.69,194.61-81.99Z"/></g></g></svg>