<?xml version="1.0" encoding="UTF-8"?><svg id="ARTWORK" xmlns="http://www.w3.org/2000/svg" viewBox="0 0 1150.43 1150.43"><defs><style>.cls-1{fill:#3072e4;}.cls-1,.cls-2{stroke-width:0px;}.cls-2{fill:#fff;}</style></defs><path class="cls-1" d="m541.16,11.6h70.31c19.15,2.5,38.42,4.35,57.44,7.6,105.65,18.05,199.13,62.23,279.18,133.46,97.88,87.09,159.08,195.27,182.09,324.53,3.64,20.45,5.79,41.17,8.64,61.76v70.31c-1.64,13.38-3.06,26.8-4.97,40.15-17.48,122.29-67.73,229.32-155.17,316.53-144.32,143.94-318.47,197.48-518.43,157.99-135.95-26.85-246.28-98.69-330.32-208.69C35.68,791.89-1.04,651.89,19.13,498.14c16.17-123.28,69.35-229.56,156.61-318.14C259.84,94.62,361.16,41.04,479.4,20.25c20.46-3.6,41.16-5.8,61.75-8.65Zm37.37,512.16c-51.64-50.94-101.42-100.05-151.22-149.14-3.38-3.34-6.68-6.85-10.47-9.67-19.53-14.55-47-5.41-54.13,17.92-4.74,15.5.92,27.67,11.82,38.57,47.65,47.63,95.09,95.47,142.79,143.05,3.01,3,7.57,4.46,11.44,6.66-22.26,22.45-40.98,41.48-59.87,60.34-32.39,32.34-65.06,64.39-97.27,96.91-20.38,20.58-12,53.09,15.22,59.97,14.59,3.69,26.27-1.96,36.57-12.25,47.9-47.9,95.95-95.64,143.97-143.42,2.78-2.77,5.73-5.36,10.66-9.95,2.72,3.8,4.67,7.46,7.47,10.29,46.65,47.07,93.4,94.05,140.16,141.01,3.35,3.37,6.7,6.83,10.51,9.62,13.35,9.76,32.45,8.36,44.46-2.97,12.14-11.45,14.63-30.13,5.46-44.16-2.77-4.24-6.45-7.95-10.05-11.57-46.97-47.27-94.01-94.48-141.02-141.71-2.78-2.79-5.43-5.72-8.49-8.96,2.61-2.81,4.74-5.25,7.02-7.53,23.34-23.26,46.72-46.49,70.08-69.73,25.96-25.82,52.23-51.34,77.76-77.58,20.16-20.71,11.05-53.42-16.2-59.72-14.18-3.28-25.62,2.03-35.63,12.08-32.04,32.17-64.37,64.05-96.42,96.21-18.57,18.62-36.83,37.56-54.63,55.74Z"/><path class="cls-2" d="m541.16,11.6c-20.59,2.85-41.29,5.05-61.75,8.65-118.25,20.79-219.56,74.37-303.67,159.75C88.48,268.58,35.29,374.86,19.13,498.14c-20.17,153.75,16.56,293.75,110.8,417.1,84.04,110,194.37,181.84,330.32,208.69,199.96,39.49,374.11-14.05,518.43-157.99,87.44-87.21,137.7-194.24,155.17-316.53,1.91-13.35,3.32-26.76,4.97-40.15v529.55H11.6c0-375.74,0-751.48,0-1127.22,176.52,0,353.03,0,529.55,0Z"/><path class="cls-2" d="m1138.82,538.96c-2.84-20.59-5-41.31-8.64-61.76-23.01-129.27-84.21-237.44-182.09-324.53-80.06-71.23-173.53-115.41-279.18-133.46-19.03-3.25-38.29-5.1-57.44-7.6h527.35v527.35Z"/><path class="cls-2" d="m578.53,523.76c17.8-18.18,36.06-37.12,54.63-55.74,32.06-32.15,64.38-64.04,96.42-96.21,10.01-10.05,21.45-15.36,35.63-12.08,27.25,6.3,36.37,39.01,16.2,59.72-25.54,26.23-51.81,51.75-77.76,77.58-23.36,23.24-46.73,46.47-70.08,69.73-2.29,2.28-4.41,4.72-7.02,7.53,3.07,3.24,5.71,6.17,8.49,8.96,47.01,47.24,94.04,94.44,141.02,141.71,3.6,3.62,7.28,7.33,10.05,11.57,9.17,14.03,6.68,32.71-5.46,44.16-12.02,11.33-31.11,12.74-44.46,2.97-3.81-2.79-7.16-6.25-10.51-9.62-46.76-46.96-93.51-93.94-140.16-141.01-2.8-2.82-4.74-6.48-7.47-10.29-4.92,4.58-7.87,7.18-10.66,9.95-48.02,47.78-96.07,95.53-143.97,143.42-10.29,10.29-21.97,15.94-36.57,12.25-27.22-6.87-35.6-39.39-15.22-59.97,32.21-32.52,64.88-64.57,97.27-96.91,18.89-18.86,37.61-37.89,59.87-60.34-3.87-2.2-8.43-3.66-11.44-6.66-47.7-47.58-95.14-95.41-142.79-143.05-10.91-10.9-16.56-23.07-11.82-38.57,7.13-23.32,34.6-32.47,54.13-17.92,3.79,2.82,7.08,6.34,10.47,9.67,49.8,49.09,99.58,98.2,151.22,149.14Z"/></svg>