<?xml version="1.0" encoding="UTF-8"?><svg id="ARTWORK" xmlns="http://www.w3.org/2000/svg" viewBox="0 0 1150.43 1150.43"><defs><style>.cls-1{fill:none;}.cls-1,.cls-2{stroke-width:0px;}.cls-2{fill:#3890ff;}</style></defs><g id="Group_17148"><path class="cls-1" d="m827.24,197.17h-329.57c-42.76,0-77.55,34.79-77.55,77.55h232.64c74.83,0,135.71,60.88,135.71,135.71v407.12h38.77c42.76,0,77.55-34.79,77.55-77.55v-465.28c0-42.76-34.79-77.55-77.55-77.55Z"/><path class="cls-2" d="m827.24,139.02h-329.57c-74.83,0-135.71,60.88-135.71,135.71h-38.77c-74.83,0-135.71,60.88-135.71,135.71v465.28c0,74.83,60.88,135.71,135.71,135.71h329.57c74.83,0,135.71-60.88,135.71-135.71h38.77c74.83,0,135.71-60.88,135.71-135.71v-465.28c0-74.83-60.88-135.71-135.71-135.71Zm-96.93,678.53v58.16c0,42.76-34.79,77.55-77.55,77.55h-329.57c-42.76,0-77.55-34.79-77.55-77.55v-465.28c0-42.76,34.79-77.55,77.55-77.55h329.57c42.76,0,77.55,34.79,77.55,77.55v407.12Zm174.48-77.55c0,42.76-34.79,77.55-77.55,77.55h-38.77v-407.12c0-74.83-60.88-135.71-135.71-135.71h-232.64c0-42.76,34.79-77.55,77.55-77.55h329.57c42.76,0,77.55,34.79,77.55,77.55v465.28Z"/></g></svg>