<?xml version="1.0" encoding="UTF-8"?><svg id="ARTWORK" xmlns="http://www.w3.org/2000/svg" viewBox="0 0 913.13 892.89"><defs><style>.cls-1{fill:#3072e4;stroke-width:0px;}</style></defs><path class="cls-1" d="m878.62,3.41H193.07c-14.16,0-25.5,11.33-25.5,25.5v576.01H32.55c-14.16,0-25.5,11.33-25.5,25.5v151.09c0,58.55,47.21,105.76,105.76,105.76h683.66c59.49,0,107.65-48.16,107.65-107.65V29.85c0-14.16-11.33-26.44-25.5-26.44ZM167.58,783.39c0,30.22-24.55,54.77-54.77,54.77s-53.82-25.5-53.82-54.77v-125.59h108.59v125.59Zm684.6-2.83c0,31.16-25.5,56.66-56.66,56.66H203.46c9.44-16.05,15.11-33.99,15.11-54.77V55.34h633.61v725.21Z"/><path class="cls-1" d="m325.27,757.89h420.21c14.16,0,25.5-11.33,25.5-25.5s-11.33-25.5-25.5-25.5h-420.21c-14.16,0-25.5,11.33-25.5,25.5s11.33,25.5,25.5,25.5Z"/><path class="cls-1" d="m325.27,626.64h420.21c14.16,0,25.5-11.33,25.5-25.5s-11.33-25.5-25.5-25.5h-420.21c-14.16,0-25.5,11.33-25.5,25.5s11.33,25.5,25.5,25.5Z"/><path class="cls-1" d="m325.27,495.38h420.21c14.16,0,25.5-11.33,25.5-25.5s-11.33-25.5-25.5-25.5h-420.21c-14.16,0-25.5,11.33-25.5,25.5s11.33,25.5,25.5,25.5Z"/><path class="cls-1" d="m609.71,267.81l-30.31-82.62c-12.81-32.53-41.72-51.7-72.38-49.88-5.42-9.51-13.09-14.19-20.28-12.03-7.19,2.15-11.03,10.27-10.32,21.19-26.72,15.36-40.33,47.31-32.99,81.64l20.07,85.52c-13.09,4.22-20.49,18.18-16.52,31.42,4.02,13.41,18.19,21.04,31.6,17.03l42.12-12.62,3.01,10.05c5.03,16.8,22.8,26.38,39.61,21.34,16.81-5.03,26.38-22.8,21.34-39.61l-3.01-10.05,42.11-12.62c13.41-4.02,21.04-18.19,17.03-31.6-3.96-13.23-17.83-20.82-31.08-17.16Zm-118.61-129.98c.07.06.16.17.24.24-.05.01-.1.03-.15.04s-.1.03-.15.05c.02-.1.04-.24.07-.33Z"/><path class="cls-1" d="m677.84,205.27c4.95,16.53,3.29,33.97-4.88,49.13-2.38,4.42-.78,9.77,3.64,12.15,4.42,2.38,9.77.78,12.15-3.64,10.55-19.58,12.85-41.99,6.58-62.89-6.26-20.9-20.64-38.84-40.08-48.91-4.42-2.38-9.77-.78-12.15,3.64-1.02,1.9-1.27,4.62-.54,7.05.73,2.43,2.28,4.08,4.32,5.59,14.53,7.83,25.99,21.35,30.94,37.87Z"/><path class="cls-1" d="m646.28,250.21c4.42,2.38,9.77.78,12.15-3.64,6.13-11.37,7.49-24.49,3.85-36.64-3.64-12.15-12-22.36-23.37-28.49-4.42-2.38-9.77-.78-12.15,3.64-1.36,2.53-1.27,4.62-.54,7.05.73,2.43,2.28,4.08,4.32,5.59,14.53,7.83,20.21,26.79,12.23,40.83-2.53,3.94-.93,9.28,3.49,11.67Z"/><path class="cls-1" d="m372.21,296.83c-4.95-16.53-3.29-33.97,4.88-49.13,2.38-4.42.78-9.77-3.64-12.15-4.42-2.38-9.77-.78-12.15,3.64-10.55,19.58-12.85,41.99-6.58,62.89,6.26,20.9,20.64,38.84,40.08,48.91,4.42,2.38,9.77.78,12.15-3.64,1.02-1.9,1.27-4.62.54-7.05s-2.28-4.08-4.32-5.59c-14.53-7.83-25.99-21.35-30.94-37.87Z"/><path class="cls-1" d="m403.77,251.89c-4.42-2.38-9.77-.78-12.15,3.64-6.13,11.37-7.49,24.49-3.85,36.64,3.64,12.15,12,22.36,23.37,28.49,4.42,2.38,9.77.78,12.15-3.64,1.36-2.53,1.27-4.62.54-7.05-.73-2.43-2.28-4.08-4.32-5.59-14.53-7.83-20.21-26.79-12.23-40.83,2.53-3.94.93-9.28-3.49-11.67Z"/></svg>