<?xml version="1.0" encoding="UTF-8"?><svg id="ARTWORK" xmlns="http://www.w3.org/2000/svg" viewBox="0 0 1150.43 1150.43"><defs><style>.cls-1{fill:none;}.cls-1,.cls-2,.cls-3{stroke-width:0px;}.cls-2{fill:#3890ff;}.cls-3{fill:#fff;}</style></defs><rect class="cls-1" x="148.3" y="256.97" width="853.83" height="636.49" rx="62.1" ry="62.1"/><polyline class="cls-3" points="570.94 637.23 570.94 637.23 570.94 637.23"/><path class="cls-2" d="m940.03,256.97H210.39c-34.24,0-62.1,27.86-62.1,62.1v512.3c0,34.24,27.86,62.1,62.1,62.1h729.64c34.24,0,62.1-27.86,62.1-62.1V319.06c0-34.24-27.86-62.1-62.1-62.1Zm-276.61,286.42c-4.03,4.22-8.2,8.58-12.45,13.01-5.36,5.59-10.85,11.28-16.37,16.94-.05.06-.11.11-.16.17-1.77,1.82-3.55,3.63-5.33,5.44-.11.11-.22.22-.33.33-1.77,1.8-3.54,3.59-5.31,5.36-.08.08-.17.17-.25.25-5.51,5.54-10.99,10.95-16.34,16.08-13.04,12.53-25.29,23.44-35.31,30.7l-1.14.83-1.06.93c-.77.67-1.61,1.27-2.49,1.79-5.3-3.07-16.31-10.58-36.61-28.56-.8-.71-1.61-1.43-2.44-2.17-.06-.05-.12-.1-.18-.16-.76-.68-1.54-1.38-2.32-2.09-.12-.11-.24-.22-.36-.33-.72-.65-1.46-1.32-2.21-2-.18-.16-.35-.32-.53-.48-.9-.82-1.81-1.65-2.73-2.51-1.48-1.36-2.97-2.74-4.46-4.13-.61-.57-1.22-1.15-1.83-1.72-.88-.82-1.75-1.64-2.63-2.47-.79-.74-1.58-1.49-2.37-2.24-.69-.65-1.38-1.3-2.07-1.96-.93-.89-1.86-1.78-2.79-2.67-.53-.51-1.07-1.02-1.6-1.54-1.05-1.01-2.1-2.03-3.16-3.04-.4-.38-.79-.77-1.19-1.15-1.18-1.14-2.35-2.28-3.52-3.43-.25-.24-.5-.49-.75-.73-1.29-1.26-2.58-2.52-3.86-3.78-.12-.12-.24-.23-.36-.35-1.39-1.36-2.77-2.73-4.15-4.09h0c-13.06-12.91-25.68-25.71-36.84-37.04-5.32-5.4-10.25-10.4-14.65-14.83-18.97-19.08-37.96-39.07-66.72-69.32-30.23-31.81-70.26-73.91-132.89-138.89h669.36c-56.73,56.48-178.02,177.25-208.92,208.14-8.82,8.81-19.44,19.94-30.69,31.71Zm-341.87-58.18c29.04,30.56,48.23,50.74,67.69,70.31,4.34,4.37,9.21,9.31,14.46,14.64,9.92,10.06,21.48,21.8,33.69,33.91-1.93,1.69-3.85,3.37-5.73,5.02-11.04,9.68-21.47,18.82-29.81,25.8-30.54,25.59-149.53,124.79-206.98,172.68v-454.83c59.12,61.37,97.48,101.73,126.69,132.46Zm120.16,197.3c8.88-7.43,19.57-16.8,30.88-26.72,3.21-2.81,6.5-5.7,9.85-8.63.36.32.71.65,1.07.97,34.61,31.29,60.63,50.68,83.33,50.68h2.7l2.66-.47c13.57-2.38,26.26-8.29,36.8-17.13,14.12-10.35,30.31-25.05,47.05-41.42,12.71,10.53,24.97,20.95,35.86,30.21,5.33,4.53,10.26,8.72,14.66,12.43,18.89,15.91,37.79,32.56,66.39,57.77,28.4,25.02,65.46,57.67,121.83,106.69H244.7c60.29-50.26,168.13-140.17,197.01-164.37Zm372.32,11.09c-28.92-25.48-48.02-42.31-67.44-58.66-4.34-3.66-9.2-7.79-14.46-12.25-9.58-8.14-20.7-17.59-32.45-27.37,2.9-3.04,5.79-6.05,8.64-9.03,10.99-11.51,21.38-22.38,29.69-30.68,32.55-32.54,165.66-165.07,217.54-216.72v478.53c-67.69-58.75-109.96-95.99-141.53-123.8Z"/></svg>