<?xml version="1.0" encoding="utf-8"?>
<!-- Generator: Adobe Illustrator 27.8.0, SVG Export Plug-In . SVG Version: 6.00 Build 0)  -->
<svg version="1.1" id="ARTWORK" xmlns="http://www.w3.org/2000/svg" xmlns:xlink="http://www.w3.org/1999/xlink" x="0px" y="0px"
	 viewBox="0 0 1150.4 1150.4" style="enable-background:new 0 0 1150.4 1150.4;" xml:space="preserve">
<style type="text/css">
	.st0{fill:#3072E4;}
</style>
<path class="st0" d="M541.2,11.6h70.3c19.2,2.5,38.4,4.4,57.4,7.6c105.7,18,199.1,62.2,279.2,133.5
	c97.9,87.1,159.1,195.3,182.1,324.5c3.6,20.5,5.8,41.2,8.6,61.8v70.3c-1.6,13.4-3.1,26.8-5,40.2c-17.5,122.3-67.7,229.3-155.2,316.5
	c-144.3,143.9-318.5,197.5-518.4,158c-136-26.8-246.3-98.7-330.3-208.7C35.7,791.9-1,651.9,19.1,498.1
	C35.3,374.9,88.5,268.6,175.7,180C259.8,94.6,361.2,41,479.4,20.2C499.9,16.6,520.6,14.4,541.2,11.6L541.2,11.6z M578.5,523.8
	c-51.6-50.9-101.4-100-151.2-149.1c-3.4-3.3-6.7-6.9-10.5-9.7c-19.5-14.5-47-5.4-54.1,17.9c-4.7,15.5,0.9,27.7,11.8,38.6
	c47.6,47.6,95.1,95.5,142.8,143c3,3,7.6,4.5,11.4,6.7c-22.3,22.5-41,41.5-59.9,60.3c-32.4,32.3-65.1,64.4-97.3,96.9
	c-20.4,20.6-12,53.1,15.2,60c14.6,3.7,26.3-2,36.6-12.2c47.9-47.9,96-95.6,144-143.4c2.8-2.8,5.7-5.4,10.7-10
	c2.7,3.8,4.7,7.5,7.5,10.3c46.7,47.1,93.4,94,140.2,141c3.3,3.4,6.7,6.8,10.5,9.6c13.3,9.8,32.5,8.4,44.5-3
	c12.1-11.5,14.6-30.1,5.5-44.2c-2.8-4.2-6.5-8-10-11.6c-47-47.3-94-94.5-141-141.7c-2.8-2.8-5.4-5.7-8.5-9c2.6-2.8,4.7-5.2,7-7.5
	c23.3-23.3,46.7-46.5,70.1-69.7c26-25.8,52.2-51.3,77.8-77.6c20.2-20.7,11-53.4-16.2-59.7c-14.2-3.3-25.6,2-35.6,12.1
	c-32,32.2-64.4,64-96.4,96.2C614.6,486.6,596.3,505.6,578.5,523.8L578.5,523.8z"/>
</svg>
