<?xml version="1.0" encoding="UTF-8"?><svg id="ARTWORK" xmlns="http://www.w3.org/2000/svg" viewBox="0 0 1150.43 1150.43"><defs><style>.cls-1{fill:#2881f2;stroke-width:0px;}</style></defs><g id="Group_17163"><path id="Path_12024" class="cls-1" d="m575.21,159.14c-229.79,0-416.07,186.28-416.07,416.07s186.28,416.07,416.07,416.07,416.07-186.28,416.07-416.07-186.28-416.07-416.07-416.07Zm5.16,628.51c3.64,1.95,8.01,1.95,11.65,0,7.19-5.22,13.72-11.28,19.46-18.05,8.46-9.9,15.66-20.65,23.89-31.79l11.57,7c-14.83,27.91-34.95,52.67-59.24,72.89-13.38,10.65-29.45,17.36-46.43,19.38-25.36,6.09-50.85-9.54-56.94-34.9-2.11-8.81-1.65-18.04,1.34-26.6,8.46-34.19,18.9-67.9,28.55-101.86s19.38-69.22,29.2-103.69c.79-3.4,1.38-6.85,1.75-10.32,2.78-10.91-3.81-22.02-14.72-24.8-1.2-.31-2.43-.5-3.67-.59-6.03-.54-12.08-.76-18.14-.68.1-1.99.4-3.97.9-5.9l1.16-8.32,143.47-22.96-9.84,34.72h0l-2.26,8.46c-20.8,72.66-41.68,145.59-62.65,218.78-2.14,5.73-3.52,11.71-4.09,17.8,0,4.41,1.87,8.62,5.16,11.57l-.11-.14Zm34.44-370.55c-28.7-.06-51.91-23.38-51.85-52.07.06-28.7,23.38-51.91,52.07-51.85,28.53.06,51.67,23.12,51.85,51.65-.05,28.77-23.3,52.12-52.07,52.27Z"/></g></svg>