<?xml version="1.0" encoding="UTF-8"?><svg id="ARTWORK" xmlns="http://www.w3.org/2000/svg" viewBox="0 0 1150.43 1150.43"><defs><style>.cls-1{fill:#2881f2;stroke-width:0px;}</style></defs><g id="Group_17211"><rect id="Rectangle_7738" class="cls-1" x="492.8" y="866.01" width="158.31" height="145.1"/><g id="Group_17210"><g id="Group_17209"><path id="Path_7197" class="cls-1" d="m833.43,256.35c-25.08-37.22-59.95-66.81-100.76-85.5-47.12-21.74-98.56-32.49-150.44-31.44-55.8-1.27-111,11.67-160.41,37.61-42.49,22.03-78.53,54.73-104.56,94.9-22.46,33.53-34.9,72.76-35.87,113.11.46,19.11,8.62,37.22,22.62,50.24,14.42,15.2,34.58,23.63,55.53,23.21,37.21,0,62.48-22.13,75.8-66.4,14.1-42.3,31.34-74.33,51.72-96.08,20.38-21.75,52.1-32.62,95.19-32.6,33.11-1.34,65.44,10.25,90.17,32.31,22.66,20.07,35.44,49.03,34.99,79.29.12,15.63-3.83,31.02-11.46,44.66-7.62,13.69-17.11,26.25-28.21,37.31-11.16,11.17-29.28,27.72-54.35,49.65-23.81,20.49-46.56,42.17-68.17,64.96-17.11,18.63-30.83,40.1-40.55,63.46-4.87,11.72-8.5,23.92-10.83,36.39l-1.04,5.73c-2.33,14.34-3.47,28.85-3.41,43.38,0,10.58,3.41,78.77,3.41,78.77h59.14c3.24.37,6.5.55,9.76.55,3.4-.01,6.79-.2,10.17-.55h79.27s-1.67-37.9-.84-55.82c.73-22.83,4.22-45.48,10.4-67.46,9.08-21.78,22.58-41.43,39.65-57.71,48.2-43.1,81.6-73.77,100.2-91.98,19.25-19.1,35.5-41.01,48.18-64.98,13.99-27.04,20.96-57.15,20.27-87.59.14-41.84-12.25-82.77-35.56-117.52"/></g></g></g></svg>