<?xml version="1.0" encoding="UTF-8"?><svg id="ARTWORK" xmlns="http://www.w3.org/2000/svg" viewBox="0 0 1150.43 1150.43"><defs><style>.cls-1{fill:#2881f2;stroke-width:0px;}</style></defs><g id="Instagram"><path class="cls-1" d="m575.21,207.49c119.91,0,134.12.46,181.47,2.62,43.79,2,67.57,9.31,83.39,15.46,20.96,8.15,35.92,17.88,51.64,33.6,15.72,15.71,25.45,30.67,33.59,51.64,6.15,15.82,13.47,39.6,15.46,83.39,2.16,47.35,2.62,61.56,2.62,181.47s-.46,134.12-2.62,181.47c-2,43.79-9.31,67.57-15.46,83.39-8.15,20.96-17.88,35.92-33.59,51.64-15.72,15.72-30.68,25.45-51.64,33.6-15.82,6.15-39.6,13.47-83.39,15.46-47.35,2.16-61.55,2.62-181.47,2.62s-134.12-.46-181.47-2.62c-43.79-2-67.57-9.31-83.39-15.46-20.96-8.15-35.92-17.88-51.64-33.59-15.71-15.72-25.45-30.68-33.6-51.64-6.15-15.83-13.47-39.6-15.46-83.39-2.16-47.36-2.62-61.56-2.62-181.47s.46-134.12,2.62-181.47c2-43.79,9.31-67.57,15.46-83.39,8.15-20.96,17.88-35.92,33.6-51.64,15.71-15.71,30.67-25.45,51.64-33.6,15.83-6.15,39.6-13.47,83.39-15.46,47.36-2.16,61.56-2.62,181.47-2.62m0-80.92c-121.97,0-137.26.52-185.16,2.7-47.8,2.18-80.45,9.77-109.01,20.88-29.53,11.48-54.58,26.83-79.54,51.8-24.97,24.97-40.32,50.01-51.8,79.54-11.1,28.57-18.69,61.21-20.88,109.01-2.19,47.9-2.7,63.19-2.7,185.16s.52,137.26,2.7,185.16c2.18,47.8,9.77,80.45,20.88,109.01,11.48,29.53,26.83,54.58,51.8,79.54,24.97,24.97,50.01,40.32,79.54,51.8,28.57,11.1,61.21,18.69,109.01,20.88,47.9,2.19,63.19,2.7,185.16,2.7s137.26-.52,185.16-2.7c47.8-2.18,80.45-9.77,109.01-20.88,29.53-11.48,54.58-26.83,79.54-51.8,24.97-24.97,40.32-50.01,51.8-79.54,11.1-28.57,18.69-61.21,20.88-109.01,2.19-47.9,2.7-63.19,2.7-185.16s-.52-137.26-2.7-185.16c-2.18-47.8-9.77-80.45-20.88-109.01-11.48-29.53-26.83-54.58-51.8-79.54-24.97-24.97-50.01-40.32-79.54-51.8-28.57-11.1-61.21-18.69-109.01-20.88-47.9-2.19-63.19-2.7-185.16-2.7h0Z"/><path class="cls-1" d="m575.21,345.05c-127.36,0-230.61,103.25-230.61,230.61s103.25,230.61,230.61,230.61,230.61-103.25,230.61-230.61-103.25-230.61-230.61-230.61Zm0,380.31c-82.68,0-149.7-67.02-149.7-149.7s67.02-149.7,149.7-149.7,149.7,67.02,149.7,149.7-67.02,149.7-149.7,149.7Z"/><circle class="cls-1" cx="814.94" cy="335.94" r="53.89"/></g></svg>