<?xml version="1.0" encoding="UTF-8"?><svg id="ARTWORK" xmlns="http://www.w3.org/2000/svg" viewBox="0 0 1150.43 1150.43"><defs><style>.cls-1{fill:#2881f2;stroke-width:0px;}</style></defs><g id="Group_17020"><g id="Group_17019"><g id="Group_17018"><path id="Path_12016" class="cls-1" d="m991.29,215.53c.01-28.15-22.8-50.98-50.95-51h0s-254.83,0-254.83,0c-28.15,0-50.97,22.83-50.96,50.98,0,28.14,22.82,50.96,50.96,50.96h130.93l-167.16,167.68c-19.98,19.82-20.12,52.09-.3,72.07l.3.3c19.82,19.98,52.09,20.12,72.07.3l.3-.3,167.63-167.68v131.48c0,28.15,22.82,50.97,50.97,50.97s50.97-22.82,50.97-50.97l.05-254.81Zm-473.46,422.49c-19.82-19.98-52.09-20.12-72.07-.3l-.3.3-167.66,167.11v-130.91c0-28.15-22.83-50.97-50.98-50.96-28.14,0-50.96,22.82-50.96,50.96v254.83c0,28.15,22.82,50.97,50.97,50.97h254.83c28.15,0,50.97-22.82,50.97-50.97s-22.82-50.97-50.97-50.97h-131.51l167.68-167.68c19.98-19.82,20.12-52.09.3-72.07l-.3-.3Z"/></g></g></g></svg>