<?xml version="1.0" encoding="UTF-8"?><svg id="ARTWORK" xmlns="http://www.w3.org/2000/svg" viewBox="0 0 1150.43 1150.43"><defs><style>.cls-1{fill:#2881f2;stroke-width:0px;}</style></defs><g id="Group_17182"><g id="Group_17181"><path id="Path_7162" class="cls-1" d="m556.39,1011.43c-221.02-.13-400.09-179.41-399.96-400.43.09-160.66,96.26-305.69,244.21-368.31,99.59-41.94,211.89-41.94,311.49,0,15.64,7.11,22.56,25.56,15.45,41.21-6.85,15.06-24.28,22.13-39.69,16.09-171.92-72.62-370.15,7.87-442.78,179.78-53.53,126.71-24.91,273.22,72.37,370.47,131.94,131.94,345.87,131.94,477.81,0,63.36-63.36,98.96-149.3,98.96-238.9.13-50.71-11.26-100.79-33.32-146.46-7.22-15.6-.42-34.09,15.17-41.31,15.26-7.06,33.36-.72,40.89,14.31,95.88,199.01,12.27,438.07-186.74,533.95-54.24,26.13-113.68,39.68-173.88,39.64"/><path id="Path_7163" class="cls-1" d="m334.17,556.63s94.38,74.68,165.95,228.18c0,0,34.24,85.05,70.53,6.22,36.29-78.83,156.61-371.32,408.65-535.19,0,0,19.7-12.45,13.48-27-2.58-6.02-17.64-9.54-42.52,4.15-62.23,34.24-307.01,160.76-419.02,421.1,0,0-53.93-114.09-175.28-134.84,0,0-54.97-5.18-21.78,37.34"/></g></g></svg>