<?xml version="1.0" encoding="UTF-8"?><svg id="ARTWORK" xmlns="http://www.w3.org/2000/svg" viewBox="0 0 1150.43 1150.43"><defs><style>.cls-1{fill:#2881f2;stroke-width:0px;}</style></defs><circle class="cls-1" cx="737.53" cy="276.17" r="39.28" transform="translate(-43.72 176.84) rotate(-13.28)"/><path class="cls-1" d="m645.66,345.67c3.96,10.28,12.09,18.4,22.37,22.37,7.01,2.6,14.41,3.97,21.88,4.06,12.42.57,16.15.69,47.62.69s35.19-.12,47.62-.69c7.47-.09,14.88-1.46,21.88-4.06,10.28-3.97,18.4-12.09,22.37-22.37,2.6-7.01,3.97-14.41,4.06-21.88.57-12.43.69-16.16.69-47.63s-.12-35.19-.69-47.62c-.09-7.47-1.46-14.88-4.06-21.88-3.96-10.28-12.09-18.4-22.37-22.37-7.01-2.6-14.41-3.97-21.88-4.06-12.43-.57-16.15-.69-47.62-.69s-35.2.12-47.62.69c-7.47.09-14.88,1.46-21.88,4.06-10.28,3.96-18.4,12.09-22.37,22.37-2.6,7.01-3.97,14.41-4.06,21.88-.57,12.43-.69,16.15-.69,47.62s.12,35.2.69,47.63c.09,7.47,1.46,14.88,4.06,21.88Zm154.79-146.56c7.81,0,14.14,6.33,14.14,14.14s-6.33,14.14-14.14,14.14-14.14-6.33-14.14-14.14,6.33-14.14,14.14-14.14Zm-62.92,16.53c33.42,0,60.52,27.09,60.52,60.52s-27.09,60.52-60.52,60.52-60.52-27.09-60.52-60.52,27.09-60.52,60.52-60.52Z"/><polygon class="cls-1" points="867.69 749.69 977.64 896.67 1002.54 896.67 892.61 749.69 867.69 749.69"/><path class="cls-1" d="m934.9,660.74c-78.2,0-143.48,55.26-158.95,128.85l-182.47-21.29c.35-5.47.54-10.98.54-16.53,0-73.44-30.63-139.72-79.81-186.77l113.43-134.7c30.98,22.13,68.92,35.16,109.9,35.16,104.54,0,189.28-84.74,189.28-189.28s-84.74-189.28-189.28-189.28-189.28,84.74-189.28,189.28c0,52.79,21.62,100.52,56.48,134.85l-113.31,134.56c-43.34-32.82-97.33-52.29-155.88-52.29-142.75,0-258.47,115.72-258.47,258.47s115.72,258.47,258.47,258.47c126.96,0,232.54-91.54,254.34-212.23l182.63,21.31c-.03,1.28-.05,2.57-.05,3.85,0,89.71,72.72,162.44,162.44,162.44s162.44-72.72,162.44-162.44-72.72-162.43-162.44-162.43Zm-314.51-433.15c.19-9.78,2.04-19.46,5.48-28.62,6.12-15.83,18.64-28.35,34.47-34.47,9.16-3.43,18.84-5.29,28.62-5.48,12.57-.57,16.59-.71,48.59-.71s36.02.13,48.59.71c9.78.2,19.46,2.05,28.62,5.48,15.83,6.12,28.35,18.64,34.47,34.47,3.43,9.16,5.28,18.84,5.48,28.62.58,12.57.71,16.59.71,48.59s-.14,36.03-.71,48.59c-.19,9.78-2.04,19.46-5.48,28.62-6.12,15.83-18.64,28.35-34.47,34.47-9.16,3.43-18.84,5.28-28.62,5.48-12.57.58-16.59.71-48.59.71s-36.03-.14-48.59-.71c-9.78-.19-19.46-2.05-28.62-5.48-15.83-6.12-28.35-18.64-34.47-34.47-3.43-9.16-5.28-18.84-5.48-28.62-.57-12.57-.71-16.59-.71-48.59s.13-36.02.71-48.59Zm-362.38,662.47h-65.59v-210.81h65.59v210.81Zm-32.82-239.61c-20.97-.01-37.97-17.02-37.97-37.99,0-20.99,17.02-38,38-37.99h0c20.98.01,37.98,17.03,37.97,38.01-.01,20.98-17.03,37.98-38.01,37.97Zm278.2,239.62h-65.5v-102.52c0-24.45-.42-55.89-34.05-55.89s-39.3,26.64-39.3,54.15v104.26h-65.44v-210.81h62.8v28.82h.9c12.8-21.91,36.63-35,61.99-34.05,66.34,0,78.6,43.65,78.6,100.42v115.62Zm468.35,18.33l-50.05-66.91-61.94,66.91h-15.9l70.75-76.43-70.31-94.01h54.19s46.09,61.63,46.09,61.63l57.04-61.63h15.9l-65.85,71.14,74.27,99.3h-54.19Z"/></svg>