<?xml version="1.0" encoding="UTF-8"?><svg id="ARTWORK" xmlns="http://www.w3.org/2000/svg" viewBox="0 0 1150.43 1150.43"><defs><style>.cls-1{fill:#2881f2;stroke-width:0px;}</style></defs><g id="Group_192"><g id="Ellipse_1"><path class="cls-1" d="m575.31,851.2c-36.19,0-72.21-4.76-107.61-14.25-52.09-13.96-100.24-37.46-143.1-69.84-44.39-33.54-81.12-75.17-109.15-123.72-28.03-48.55-45.72-101.17-52.57-156.38-6.61-53.31-2.89-106.75,11.07-158.85,13.96-52.1,37.46-100.24,69.84-143.1,33.54-44.39,75.17-81.12,123.72-109.15,48.55-28.03,101.17-45.72,156.38-52.57,53.31-6.61,106.75-2.89,158.85,11.07,52.09,13.96,100.24,37.46,143.1,69.84,44.39,33.54,81.12,75.17,109.15,123.72,28.03,48.55,45.72,101.16,52.57,156.38,6.62,53.31,2.89,106.75-11.07,158.85-13.96,52.1-37.46,100.24-69.84,143.1-33.54,44.39-75.17,81.12-123.72,109.15-48.55,28.03-101.17,45.72-156.38,52.57-17.08,2.12-34.18,3.18-51.24,3.18Zm-.62-737.21c-55.72,0-110.71,14.61-160.25,43.22-74.38,42.94-127.59,112.29-149.82,195.25-22.23,82.96-10.82,169.62,32.12,244,42.94,74.38,112.29,127.59,195.25,149.82,27.7,7.42,55.82,11.09,83.75,11.1,55.72,0,110.71-14.61,160.25-43.22,74.38-42.95,127.59-112.29,149.82-195.25,22.23-82.96,10.82-169.62-32.12-244-42.95-74.38-112.29-127.59-195.25-149.82-27.7-7.42-55.82-11.1-83.75-11.1Zm-183.72,2.57h0,0Z"/></g><path class="cls-1" d="m949.16,1130.25c-16.22,0-32-8.42-40.69-23.47l-166.17-287.82c-12.96-22.45-5.27-51.15,17.18-64.11,22.45-12.96,51.15-5.27,64.11,17.18l166.17,287.82c12.96,22.45,5.27,51.15-17.18,64.11-7.39,4.27-15.46,6.3-23.42,6.3Z"/></g></svg>