<?xml version="1.0" encoding="UTF-8"?><svg id="ARTWORK" xmlns="http://www.w3.org/2000/svg" viewBox="0 0 1011.51 672.69"><defs><style>.cls-1{fill:#3072e4;stroke-width:0px;}</style></defs><g id="Group_17275"><g id="Group_17274"><path class="cls-1" d="m969.66,82.82H423.63c-19.54,0-35.37-15.84-35.37-35.38s15.84-35.38,35.37-35.38h546.03c19.54,0,35.37,15.84,35.37,35.38s-15.84,35.38-35.37,35.38Z"/><path class="cls-1" d="m722.03,436.57h-298.4c-19.54,0-35.37-15.84-35.37-35.38s15.84-35.38,35.37-35.38h298.4c19.54,0,35.37,15.84,35.37,35.38s-15.84,35.38-35.37,35.38Z"/><path class="cls-1" d="m863.53,259.69h-439.9c-19.54,0-35.37-15.84-35.37-35.38s15.84-35.38,35.37-35.38h439.9c19.54,0,35.37,15.84,35.37,35.38s-15.84,35.38-35.37,35.38Z"/><path class="cls-1" d="m598.22,613.44h-174.59c-19.54,0-35.37-15.84-35.37-35.38s15.84-35.38,35.37-35.38h174.59c19.54,0,35.37,15.84,35.37,35.38s-15.84,35.38-35.37,35.38Z"/></g><path class="cls-1" d="m320.1,488.74c-13.24-14.37-35.62-15.29-49.99-2.05l-67.16,61.87V36.07c0-19.54-15.84-35.38-35.37-35.38s-35.37,15.84-35.37,35.38v509.32l-65.6-68.47c-13.52-14.11-35.91-14.59-50.02-1.07-14.11,13.52-14.59,35.91-1.07,50.02l124.38,129.83c6.94,7.25,16.23,10.9,25.55,10.9,8.57,0,17.17-3.1,23.96-9.36l128.64-118.51c14.37-13.24,15.29-35.62,2.05-49.99Z"/></g></svg>