<?xml version="1.0" encoding="UTF-8"?><svg id="ARTWORK" xmlns="http://www.w3.org/2000/svg" viewBox="0 0 866.54 868.23"><defs><style>.cls-1{fill:#3072e4;stroke-width:0px;}</style></defs><path class="cls-1" d="m432.79,3.25C195.11,3.25,2.43,195.92,2.43,433.61s192.68,430.36,430.36,430.36,430.36-192.68,430.36-430.36S670.47,3.25,432.79,3.25Zm277.91,260.17c-1.45,11-10.82,19.22-21.92,19.24-.96,0-1.92-.07-2.87-.2l-38.46-5.09c86.3,122.37,57.07,291.53-65.3,377.83-122.37,86.3-291.53,57.07-377.83-65.3-86.3-122.37-57.07-291.53,65.3-377.83,45.72-32.24,100.29-49.56,156.24-49.56,12.22,0,22.13,9.91,22.13,22.13s-9.91,22.13-22.13,22.13c-125.44-.12-227.23,101.47-227.35,226.91-.12,125.44,101.47,227.23,226.91,227.35s227.23-101.47,227.35-226.91c.05-47-14.49-92.85-41.6-131.24l-2.11,48.77c-.51,11.84-10.25,21.18-22.11,21.19h-.96c-12.21-.53-21.69-10.85-21.16-23.07l4.45-103.09c0-.33.11-.62.13-.95.01-.33,0-.44,0-.67v-.34c0-.45.22-.89.3-1.33.13-.66.27-1.31.46-1.95.1-.34.14-.69.26-1.02.11-.33.37-.79.55-1.19.17-.4.5-1.18.79-1.75.17-.33.29-.69.49-1.02s.56-.76.82-1.15c.26-.39.65-.93,1-1.43.11-.14.2-.3.32-.43.11-.13.26-.42.43-.6.17-.19.73-.65,1.09-.99s.67-.65,1.03-.96c.36-.32.66-.65,1.02-.93.36-.29.95-.6,1.43-.9.49-.3.65-.4.99-.59.34-.19.82-.55,1.25-.76.43-.22,1.03-.4,1.55-.62.52-.22.75-.29,1.13-.42.39-.13.89-.36,1.43-.49.55-.13.99-.19,1.43-.27.45-.09.99-.17,1.43-.24s.83-.16,1.28-.19c.45-.03.9,0,1.43,0s.67-.07,1.02,0,.63.11.96.14h1.06l97.22,12.91c12.11,1.59,20.64,12.71,19.04,24.82,0,.02,0,.04,0,.06h.07Z"/></svg>