<?xml version="1.0" encoding="UTF-8"?><svg id="ARTWORK" xmlns="http://www.w3.org/2000/svg" viewBox="0 0 1150.43 1150.43"><defs><style>.cls-1{fill:#2881f2;stroke-width:0px;}</style></defs><g id="Group_17193"><g id="Group_17192"><path id="Path_7186" class="cls-1" d="m647.18,753c-15.74-17.62-42.28-20.41-61.34-6.46-16.47,14.56-33.71,28.21-51.66,40.9-35.51,25.83-72.11-35.51-72.11-35.51l-65.65-105.47s-17.22-24.75-36.59-54.89c-11.85-18.29-24.75-37.67-34.44-54.89-24.75-49.51-10.76-66.73-10.76-66.73,7.53-18.29,55.98-32.27,78.56-47.36,20.23-12.24,28.1-37.68,18.29-59.2l-71.03-140.97c-8.61-18.29-23.71-26.91-48.44-20.45-24.75,5.38-67.83,35.51-67.83,35.51-7.24,4.41-14.07,9.45-20.42,15.07-53.81,37.67-86.1,89.33-61.34,205.56,23.71,120.51,124.85,274.44,124.85,274.44,0,0,101.13,152.83,203.41,223.86,38.75,26.91,72.11,41.98,100.1,47.36,9.54,2.14,19.29,3.22,29.06,3.23,33.36,0,62.42-12.91,89.33-31.21,0,0,44.12-27.98,59.19-48.43,15.07-20.45,13.99-37.67,0-52.74l-101.18-121.62Z"/><path id="Path_7187" class="cls-1" d="m983.35,693.89c-4.68-.01-9.28-1.18-13.4-3.39l-111.29-59.2c-36.14,15.74-75.16,23.8-114.59,23.66-150.23,0-272.46-114.74-272.46-255.76s122.17-255.76,272.4-255.76,272.46,114.74,272.46,255.76c-.03,45.92-13.06,90.9-37.58,129.73l31.99,129.73c3.74,15.3-5.64,30.73-20.94,34.46-2.16.53-4.37.8-6.59.81m-123.68-101.16l114.45,60.86-32.33-131.14,4.25-6.34c23.36-34.54,35.87-75.27,35.94-116.96,0-122.01-106.75-221.27-237.96-221.27s-237.99,99.26-237.99,221.27,106.75,221.27,237.96,221.27c37.28.15,74.12-8.04,107.82-23.97l7.86-3.71Z"/><path id="Path_7188" class="cls-1" d="m742.38,442.42l-38.05-33.31-108.8,93.26c4.13,3.82,9.56,5.94,15.19,5.93h263.34c5.62.02,11.03-2.1,15.15-5.93l-108.73-93.26-38.09,33.31Z"/><path id="Path_7189" class="cls-1" d="m889.22,294.58c-4.11-3.83-9.53-5.95-15.15-5.93h-263.36c-5.63-.01-11.05,2.14-15.15,6l146.79,125.81,146.85-125.89Z"/><path id="Path_7190" class="cls-1" d="m588.59,307.92v182.52l106.18-90.22-106.18-92.3Z"/><path id="Path_7191" class="cls-1" d="m789.98,400.2l106.18,90.22v-182.54l-106.18,92.32Z"/></g></g></svg>